<svg width="82" height="82" viewBox="0 0 82 82" fill="none" xmlns="http://www.w3.org/2000/svg">
<path d="M41 81C63.0914 81 81 63.0914 81 41C81 18.9086 63.0914 1 41 1C18.9086 1 1 18.9086 1 41C1 63.0914 18.9086 81 41 81Z" stroke="black" stroke-width="2" stroke-linecap="round" stroke-linejoin="round"/>
<path d="M31.4178 57.7567C30.4546 58.1164 29.4084 58.1925 28.4033 57.9758C27.3982 57.7592 26.4762 57.259 25.7467 56.5344C25.2439 56.0378 24.8455 55.4458 24.5747 54.793C24.304 54.1403 24.1664 53.44 24.17 52.7333C24.1752 52.2366 24.2493 51.743 24.39 51.2667C23.86 50.2758 23.4498 49.2255 23.1678 48.1378C22.0446 49.687 21.5282 51.5943 21.7164 53.4986C21.9046 55.4029 22.7844 57.1722 24.1892 58.4716C25.594 59.7709 27.4263 60.5103 29.3395 60.5498C31.2527 60.5892 33.114 59.9259 34.5711 58.6855C33.4875 58.4992 32.4293 58.1875 31.4178 57.7567ZM41.5011 52.8311C39.7352 53.8154 37.6968 54.1975 35.6943 53.9196C33.6919 53.6417 31.8345 52.719 30.4033 51.2911C28.9737 49.8664 28.0485 48.0138 27.7683 46.015C27.4881 44.0162 27.8683 41.9806 28.8511 40.2178C28.5838 39.0748 28.4323 37.9078 28.3989 36.7344C26.3191 38.9533 25.1843 41.8943 25.2345 44.935C25.2846 47.9757 26.5159 50.8777 28.6678 53.0267C30.8254 55.1717 33.7299 56.3978 36.7719 56.4479C39.814 56.4981 42.7573 55.3683 44.9844 53.2955C43.8108 53.2565 42.644 53.1009 41.5011 52.8311Z" fill="black"/>
<path d="M45.4734 51.0344C42.0526 51.0293 38.7393 49.8385 36.0979 47.6648C33.4566 45.491 31.6504 42.4688 30.9872 39.1128C30.3239 35.7569 30.8446 32.2748 32.4605 29.2597C34.0764 26.2446 36.6876 23.8829 39.8494 22.5769C43.0111 21.2709 46.5278 21.1013 49.8005 22.0971C53.0732 23.0929 55.8994 25.1925 57.7979 28.0382C59.6964 30.8839 60.5496 34.2997 60.2123 37.7039C59.8749 41.108 58.3679 44.29 55.9479 46.7078C54.5722 48.0822 52.9389 49.1718 51.1416 49.9142C49.3442 50.6567 47.4181 51.0373 45.4734 51.0344ZM45.4734 23.8889C43.8497 23.8873 42.2416 24.2057 40.741 24.826C39.2404 25.4462 37.8768 26.3562 36.7281 27.5037C35.5793 28.6513 34.6681 30.014 34.0463 31.514C33.4246 33.014 33.1046 34.6218 33.1046 36.2455C33.1048 37.8709 33.4292 39.4798 34.0588 40.9782C34.6884 42.4767 35.6105 43.8345 36.7712 44.9722C39.0908 47.2911 42.2363 48.5938 45.5162 48.5938C48.7961 48.5938 51.9417 47.2911 54.2612 44.9722C55.9887 43.2405 57.1633 41.0351 57.6364 38.6353C58.1094 36.2354 57.8596 33.7492 56.9186 31.4915C55.9775 29.2338 54.3876 27.3061 52.3502 25.9527C50.3127 24.5993 47.9194 23.881 45.4734 23.8889Z" fill="black"/>
</svg>
