<svg width="82" height="82" viewBox="0 0 82 82" fill="none" xmlns="http://www.w3.org/2000/svg">
<path d="M41 81C63.0914 81 81 63.0914 81 41C81 18.9086 63.0914 1 41 1C18.9086 1 1 18.9086 1 41C1 63.0914 18.9086 81 41 81Z" stroke="white" stroke-width="2" stroke-linecap="round" stroke-linejoin="round"/>
<g clip-path="url(#clip0_158_2592)">
<path d="M30.9778 41.9777H51.0222V45.7422H52.9778V40.0222H41.9778V36.1111H40.0222V40.0222H29.0222V45.7422H30.9778V41.9777Z" fill="white"/>
<path d="M36.1111 47.1111H23.8889C23.2406 47.1111 22.6188 47.3686 22.1604 47.827C21.702 48.2855 21.4445 48.9072 21.4445 49.5555V56.8889C21.4445 57.5372 21.702 58.1589 22.1604 58.6173C22.6188 59.0758 23.2406 59.3333 23.8889 59.3333H36.1111C36.7594 59.3333 37.3812 59.0758 37.8396 58.6173C38.298 58.1589 38.5556 57.5372 38.5556 56.8889V49.5555C38.5556 48.9072 38.298 48.2855 37.8396 47.827C37.3812 47.3686 36.7594 47.1111 36.1111 47.1111ZM23.8889 56.8889V49.5555H36.1111V56.8889H23.8889Z" fill="white"/>
<path d="M58.1111 47.1111H45.8889C45.2406 47.1111 44.6188 47.3686 44.1604 47.827C43.702 48.2855 43.4445 48.9072 43.4445 49.5555V56.8889C43.4445 57.5372 43.702 58.1589 44.1604 58.6173C44.6188 59.0758 45.2406 59.3333 45.8889 59.3333H58.1111C58.7594 59.3333 59.3812 59.0758 59.8396 58.6173C60.298 58.1589 60.5556 57.5372 60.5556 56.8889V49.5555C60.5556 48.9072 60.298 48.2855 59.8396 47.827C59.3812 47.3686 58.7594 47.1111 58.1111 47.1111ZM45.8889 56.8889V49.5555H58.1111V56.8889H45.8889Z" fill="white"/>
<path d="M34.8889 34.8888H47.1111C47.7594 34.8888 48.3812 34.6313 48.8396 34.1729C49.298 33.7145 49.5556 33.0927 49.5556 32.4444V25.1111C49.5556 24.4628 49.298 23.841 48.8396 23.3826C48.3812 22.9242 47.7594 22.6666 47.1111 22.6666H34.8889C34.2406 22.6666 33.6188 22.9242 33.1604 23.3826C32.702 23.841 32.4445 24.4628 32.4445 25.1111V32.4444C32.4445 33.0927 32.702 33.7145 33.1604 34.1729C33.6188 34.6313 34.2406 34.8888 34.8889 34.8888ZM34.8889 25.1111H47.1111V32.4444H34.8889V25.1111Z" fill="white"/>
</g>
<defs>
<clipPath id="clip0_158_2592">
<rect width="44" height="44" fill="white" transform="translate(19 19)"/>
</clipPath>
</defs>
</svg>
