<svg width="61" height="61" viewBox="0 0 61 61" fill="none" xmlns="http://www.w3.org/2000/svg">
<path fill-rule="evenodd" clip-rule="evenodd" d="M29.5244 0.0175854C45.3594 -0.532161 59.883 11.8708 60.9397 28.336C62.0216 45.1955 48.4032 60.5126 30.8401 60.9998C30.5641 61.0075 30.3341 60.7899 30.3264 60.5139C30.3188 60.2378 30.5363 60.0078 30.8124 60.0002C47.8081 59.5287 60.9875 44.6952 59.9418 28.4001C58.9209 12.4943 44.8736 0.48531 29.5591 1.01698L29.5442 0.588587L29.5591 1.01698C14.0358 1.55573 0.818662 14.8868 1.00188 30.8823C1.21882 43.4127 7.18117 50.7333 13.2099 54.8999C16.2319 56.9885 19.2746 58.2863 21.6249 59.0421C22.7998 59.4199 23.7974 59.661 24.5278 59.7977C24.8936 59.8661 25.1875 59.9075 25.4002 59.9273C25.507 59.9373 25.5875 59.9412 25.643 59.9413C25.6695 59.9413 25.685 59.9404 25.6918 59.9399C25.9484 59.8795 26.2105 60.0297 26.2857 60.2857C26.3636 60.5507 26.2119 60.8286 25.947 60.9064C25.8403 60.9378 25.7233 60.9413 25.6418 60.9413C25.5458 60.9411 25.4329 60.9347 25.3076 60.923C25.056 60.8996 24.7304 60.853 24.3438 60.7806C23.5694 60.6357 22.5309 60.3839 21.3187 59.9941C18.8949 59.2146 15.7595 57.8776 12.6414 55.7226C6.39028 51.4023 0.224925 43.8007 0.00200899 30.8982L0.00196747 30.8953C-0.188453 14.3441 13.4697 0.574781 29.5244 0.0175854Z" fill="white"/>
<g clip-path="url(#clip0_126_2624)">
<path d="M19.3036 24.6072H21.6607C21.7128 24.6072 21.7628 24.5865 21.7996 24.5496C21.8365 24.5128 21.8572 24.4628 21.8572 24.4107C21.8572 24.3586 21.8365 24.3087 21.7996 24.2718C21.7628 24.235 21.7128 24.2143 21.6607 24.2143H19.3036C19.2515 24.2143 19.2015 24.235 19.1647 24.2718C19.1279 24.3087 19.1072 24.3586 19.1072 24.4107C19.1072 24.4628 19.1279 24.5128 19.1647 24.5496C19.2015 24.5865 19.2515 24.6072 19.3036 24.6072ZM19.8929 25.1964C19.8929 25.2485 19.9136 25.2985 19.9504 25.3353C19.9873 25.3722 20.0372 25.3929 20.0893 25.3929H22.8393C22.8914 25.3929 22.9414 25.3722 22.9782 25.3353C23.0151 25.2985 23.0357 25.2485 23.0357 25.1964C23.0357 25.1443 23.0151 25.0944 22.9782 25.0575C22.9414 25.0207 22.8914 25 22.8393 25H20.0893C20.0372 25 19.9873 25.0207 19.9504 25.0575C19.9136 25.0944 19.8929 25.1443 19.8929 25.1964ZM19.3036 26.1786H21.6607C21.7128 26.1786 21.7628 26.1579 21.7996 26.121C21.8365 26.0842 21.8572 26.0342 21.8572 25.9822C21.8572 25.9301 21.8365 25.8801 21.7996 25.8433C21.7628 25.8064 21.7128 25.7857 21.6607 25.7857H19.3036C19.2515 25.7857 19.2015 25.8064 19.1647 25.8433C19.1279 25.8801 19.1072 25.9301 19.1072 25.9822C19.1072 26.0342 19.1279 26.0842 19.1647 26.121C19.2015 26.1579 19.2515 26.1786 19.3036 26.1786ZM22.0536 31.4822V33.25C22.0542 33.4582 22.1372 33.6577 22.2844 33.8049C22.4316 33.9521 22.6311 34.0351 22.8393 34.0357H26.375C26.5832 34.0351 26.7827 33.9521 26.9299 33.8049C27.0771 33.6577 27.1601 33.4582 27.1607 33.25V32.6607H27.9465V33.25C27.9471 33.4582 28.0301 33.6577 28.1773 33.8049C28.3245 33.9521 28.524 34.0351 28.7322 34.0357H29.5179V34.625H24.6072C24.5551 34.625 24.5051 34.6457 24.4683 34.6825C24.4314 34.7194 24.4107 34.7693 24.4107 34.8214V36H22.8393C22.6311 36.0006 22.4316 36.0836 22.2844 36.2308C22.1372 36.378 22.0542 36.5775 22.0536 36.7857V38.5536C22.0542 38.7618 22.1372 38.9613 22.2844 39.1085C22.4316 39.2557 22.6311 39.3387 22.8393 39.3393H26.375C26.5832 39.3387 26.7827 39.2557 26.9299 39.1085C27.0771 38.9613 27.1601 38.7618 27.1607 38.5536V37.9643H27.9465V38.5536C27.9471 38.7618 28.0301 38.9613 28.1773 39.1085C28.3245 39.2557 28.524 39.3387 28.7322 39.3393H32.2679C32.4761 39.3387 32.6756 39.2557 32.8228 39.1085C32.97 38.9613 33.053 38.7618 33.0536 38.5536V37.9643H33.8393V38.5536C33.8399 38.7618 33.9229 38.9613 34.0701 39.1085C34.2174 39.2557 34.4168 39.3387 34.625 39.3393H38.1607C38.3689 39.3387 38.5684 39.2557 38.7156 39.1085C38.8629 38.9613 38.9458 38.7618 38.9465 38.5536V36.7857C38.9458 36.5775 38.8629 36.378 38.7156 36.2308C38.5684 36.0836 38.3689 36.0006 38.1607 36H36.5893V34.8214C36.5893 34.7693 36.5686 34.7194 36.5318 34.6825C36.495 34.6457 36.445 34.625 36.3929 34.625H31.4822V34.0357H32.2679C32.4761 34.0351 32.6756 33.9521 32.8228 33.8049C32.97 33.6577 33.053 33.4582 33.0536 33.25V32.6607H33.8393V33.25C33.8399 33.4582 33.9229 33.6577 34.0701 33.8049C34.2174 33.9521 34.4168 34.0351 34.625 34.0357H38.1607C38.3689 34.0351 38.5684 33.9521 38.7156 33.8049C38.8629 33.6577 38.9458 33.4582 38.9465 33.25V31.4822C38.9458 31.274 38.8629 31.0745 38.7156 30.9273C38.5684 30.78 38.3689 30.6971 38.1607 30.6964H36.5893V29.3214C36.5893 29.2693 36.5686 29.2194 36.5318 29.1825C36.495 29.1457 36.445 29.125 36.3929 29.125H31.4822V28.3393H33.0536C33.2618 28.3387 33.4613 28.2557 33.6085 28.1085C33.7557 27.9613 33.8387 27.7618 33.8393 27.5536V25C33.8387 24.7918 33.7557 24.5923 33.6085 24.4451C33.4613 24.2979 33.2618 24.2149 33.0536 24.2143H27.9465C27.7383 24.2149 27.5388 24.2979 27.3916 24.4451C27.2444 24.5923 27.1614 24.7918 27.1607 25V27.5536C27.1614 27.7618 27.2444 27.9613 27.3916 28.1085C27.5388 28.2557 27.7383 28.3387 27.9465 28.3393H29.5179V29.125H24.6072C24.5551 29.125 24.5051 29.1457 24.4683 29.1825C24.4314 29.2194 24.4107 29.2693 24.4107 29.3214V30.6964H22.8393C22.6311 30.6971 22.4316 30.78 22.2844 30.9273C22.1372 31.0745 22.0542 31.274 22.0536 31.4822ZM26.7679 38.5536C26.7678 38.6577 26.7264 38.7576 26.6527 38.8313C26.5791 38.9049 26.4792 38.9463 26.375 38.9464H22.8393C22.7352 38.9463 22.6353 38.9049 22.5616 38.8313C22.488 38.7576 22.4466 38.6577 22.4465 38.5536V36.7857C22.4466 36.6816 22.488 36.5817 22.5616 36.508C22.6353 36.4344 22.7352 36.393 22.8393 36.3929H26.375C26.4792 36.393 26.5791 36.4344 26.6527 36.508C26.7264 36.5817 26.7678 36.6816 26.7679 36.7857V38.5536ZM32.6607 38.5536C32.6606 38.6577 32.6192 38.7576 32.5456 38.8313C32.4719 38.9049 32.3721 38.9463 32.2679 38.9464H28.7322C28.628 38.9463 28.5282 38.9049 28.4545 38.8313C28.3808 38.7576 28.3394 38.6577 28.3393 38.5536V36.7857C28.3394 36.6816 28.3808 36.5817 28.4545 36.508C28.5282 36.4344 28.628 36.393 28.7322 36.3929H32.2679C32.3721 36.393 32.4719 36.4344 32.5456 36.508C32.6192 36.5817 32.6606 36.6816 32.6607 36.7857V38.5536ZM38.1607 36.3929C38.2649 36.393 38.3648 36.4344 38.4384 36.508C38.5121 36.5817 38.5535 36.6816 38.5536 36.7857V38.5536C38.5535 38.6577 38.5121 38.7576 38.4384 38.8313C38.3648 38.9049 38.2649 38.9463 38.1607 38.9464H34.625C34.5209 38.9463 34.421 38.9049 34.3474 38.8313C34.2737 38.7576 34.2323 38.6577 34.2322 38.5536V36.7857C34.2323 36.6816 34.2737 36.5817 34.3474 36.508C34.421 36.4344 34.5209 36.393 34.625 36.3929H38.1607ZM36.1965 35.0179V36H34.625C34.4168 36.0006 34.2174 36.0836 34.0701 36.2308C33.9229 36.378 33.8399 36.5775 33.8393 36.7857V37.5714H33.0536V36.7857C33.053 36.5775 32.97 36.378 32.8228 36.2308C32.6756 36.0836 32.4761 36.0006 32.2679 36H28.7322C28.524 36.0006 28.3245 36.0836 28.1773 36.2308C28.0301 36.378 27.9471 36.5775 27.9465 36.7857V37.5714H27.1607V36.7857C27.1601 36.5775 27.0771 36.378 26.9299 36.2308C26.7827 36.0836 26.5832 36.0006 26.375 36H24.8036V35.0179H29.7143C29.7664 35.0179 29.8164 34.9972 29.8532 34.9603C29.8901 34.9235 29.9107 34.8735 29.9107 34.8214V34.0357H31.0893V34.8214C31.0893 34.8735 31.11 34.9235 31.1469 34.9603C31.1837 34.9972 31.2337 35.0179 31.2857 35.0179H36.1965ZM32.6607 33.25C32.6606 33.3542 32.6192 33.454 32.5456 33.5277C32.4719 33.6013 32.3721 33.6428 32.2679 33.6429H28.7322C28.628 33.6428 28.5282 33.6013 28.4545 33.5277C28.3808 33.454 28.3394 33.3542 28.3393 33.25V31.4822C28.3394 31.378 28.3808 31.2781 28.4545 31.2045C28.5282 31.1308 28.628 31.0894 28.7322 31.0893H32.2679C32.3721 31.0894 32.4719 31.1308 32.5456 31.2045C32.6192 31.2781 32.6606 31.378 32.6607 31.4822V33.25ZM38.1607 31.0893C38.2649 31.0894 38.3648 31.1308 38.4384 31.2045C38.5121 31.2781 38.5535 31.378 38.5536 31.4822V33.25C38.5535 33.3542 38.5121 33.454 38.4384 33.5277C38.3648 33.6013 38.2649 33.6428 38.1607 33.6429H34.625C34.5209 33.6428 34.421 33.6013 34.3474 33.5277C34.2737 33.454 34.2323 33.3542 34.2322 33.25V31.4822C34.2323 31.378 34.2737 31.2781 34.3474 31.2045C34.421 31.1308 34.5209 31.0894 34.625 31.0893H38.1607ZM27.9465 27.9464C27.8423 27.9463 27.7424 27.9049 27.6688 27.8313C27.5951 27.7576 27.5537 27.6577 27.5536 27.5536V25C27.5537 24.8958 27.5951 24.796 27.6688 24.7223C27.7424 24.6487 27.8423 24.6073 27.9465 24.6072H33.0536C33.1578 24.6073 33.2576 24.6487 33.3313 24.7223C33.4049 24.796 33.4464 24.8958 33.4465 25V27.5536C33.4464 27.6577 33.4049 27.7576 33.3313 27.8313C33.2576 27.9049 33.1578 27.9463 33.0536 27.9464H27.9465ZM24.8036 29.5179H29.7143C29.7664 29.5179 29.8164 29.4972 29.8532 29.4603C29.8901 29.4235 29.9107 29.3735 29.9107 29.3214V28.3393H31.0893V29.3214C31.0893 29.3735 31.11 29.4235 31.1469 29.4603C31.1837 29.4972 31.2337 29.5179 31.2857 29.5179H36.1965V30.6964H34.625C34.4168 30.6971 34.2174 30.78 34.0701 30.9273C33.9229 31.0745 33.8399 31.274 33.8393 31.4822V32.2679H33.0536V31.4822C33.053 31.274 32.97 31.0745 32.8228 30.9273C32.6756 30.78 32.4761 30.6971 32.2679 30.6964H28.7322C28.524 30.6971 28.3245 30.78 28.1773 30.9273C28.0301 31.0745 27.9471 31.274 27.9465 31.4822V32.2679H27.1607V31.4822C27.1601 31.274 27.0771 31.0745 26.9299 30.9273C26.7827 30.78 26.5832 30.6971 26.375 30.6964H24.8036V29.5179ZM26.375 31.0893C26.4792 31.0894 26.5791 31.1308 26.6527 31.2045C26.7264 31.2781 26.7678 31.378 26.7679 31.4822V33.25C26.7678 33.3542 26.7264 33.454 26.6527 33.5277C26.5791 33.6013 26.4792 33.6428 26.375 33.6429H22.8393C22.7352 33.6428 22.6353 33.6013 22.5616 33.5277C22.488 33.454 22.4466 33.3542 22.4465 33.25V31.4822C22.4466 31.378 22.488 31.2781 22.5616 31.2045C22.6353 31.1308 22.7352 31.0894 22.8393 31.0893H26.375Z" fill="white"/>
<path d="M41.3036 19.5C41.4121 19.5 41.5 19.412 41.5 19.3035C41.5 19.1951 41.4121 19.1071 41.3036 19.1071C41.1951 19.1071 41.1072 19.1951 41.1072 19.3035C41.1072 19.412 41.1951 19.5 41.3036 19.5Z" fill="white"/>
<path d="M39.9282 19.3153C39.9346 19.207 39.8521 19.1139 39.7438 19.1075C39.6355 19.101 39.5425 19.1835 39.536 19.2918C39.5295 19.4001 39.6121 19.4932 39.7204 19.4996C39.8287 19.5061 39.9217 19.4235 39.9282 19.3153Z" fill="white"/>
<path d="M39.3393 24.6071H41.6964C41.7485 24.6071 41.7985 24.5864 41.8353 24.5496C41.8721 24.5127 41.8928 24.4628 41.8928 24.4107C41.8928 24.3586 41.8721 24.3086 41.8353 24.2718C41.7985 24.235 41.7485 24.2143 41.6964 24.2143H39.3393C39.2872 24.2143 39.2372 24.235 39.2004 24.2718C39.1635 24.3086 39.1428 24.3586 39.1428 24.4107C39.1428 24.4628 39.1635 24.5127 39.2004 24.5496C39.2372 24.5864 39.2872 24.6071 39.3393 24.6071ZM38.1607 25.3928H40.9107C40.9628 25.3928 41.0127 25.3721 41.0496 25.3353C41.0864 25.2985 41.1071 25.2485 41.1071 25.1964C41.1071 25.1443 41.0864 25.0943 41.0496 25.0575C41.0127 25.0207 40.9628 25 40.9107 25H38.1607C38.1086 25 38.0586 25.0207 38.0218 25.0575C37.9849 25.0943 37.9643 25.1443 37.9643 25.1964C37.9643 25.2485 37.9849 25.2985 38.0218 25.3353C38.0586 25.3721 38.1086 25.3928 38.1607 25.3928ZM41.6964 25.7857H39.3393C39.2872 25.7857 39.2372 25.8064 39.2004 25.8432C39.1635 25.8801 39.1428 25.93 39.1428 25.9821C39.1428 26.0342 39.1635 26.0842 39.2004 26.121C39.2372 26.1579 39.2872 26.1785 39.3393 26.1785H41.6964C41.7485 26.1785 41.7985 26.1579 41.8353 26.121C41.8721 26.0842 41.8928 26.0342 41.8928 25.9821C41.8928 25.93 41.8721 25.8801 41.8353 25.8432C41.7985 25.8064 41.7485 25.7857 41.6964 25.7857ZM33.0535 17.4375C33.1312 17.4375 33.2072 17.4144 33.2718 17.3713C33.3364 17.3281 33.3868 17.2667 33.4165 17.195C33.4462 17.1232 33.454 17.0442 33.4388 16.968C33.4237 16.8918 33.3863 16.8218 33.3313 16.7668C33.2764 16.7119 33.2064 16.6745 33.1302 16.6593C33.054 16.6441 32.975 16.6519 32.9032 16.6817C32.8314 16.7114 32.7701 16.7618 32.7269 16.8264C32.6837 16.891 32.6607 16.9669 32.6607 17.0446C32.6608 17.1488 32.7022 17.2486 32.7759 17.3223C32.8495 17.3959 32.9494 17.4374 33.0535 17.4375ZM33.0535 16.8482C33.0924 16.8482 33.1304 16.8597 33.1627 16.8813C33.195 16.9029 33.2201 16.9336 33.235 16.9694C33.2499 17.0053 33.2538 17.0448 33.2462 17.0829C33.2386 17.121 33.2199 17.156 33.1924 17.1835C33.165 17.211 33.13 17.2297 33.0919 17.2373C33.0538 17.2449 33.0143 17.241 32.9784 17.2261C32.9425 17.2112 32.9118 17.186 32.8902 17.1537C32.8686 17.1214 32.8571 17.0835 32.8571 17.0446C32.8572 16.9925 32.8779 16.9426 32.9147 16.9058C32.9515 16.869 33.0015 16.8482 33.0535 16.8482ZM37.9643 15.4732C38.0808 15.4732 38.1947 15.4386 38.2916 15.3739C38.3885 15.3091 38.4641 15.2171 38.5087 15.1094C38.5533 15.0017 38.565 14.8832 38.5422 14.7689C38.5195 14.6546 38.4634 14.5496 38.3809 14.4672C38.2985 14.3848 38.1935 14.3287 38.0792 14.3059C37.9649 14.2832 37.8464 14.2949 37.7387 14.3395C37.6311 14.3841 37.539 14.4596 37.4743 14.5565C37.4095 14.6534 37.375 14.7674 37.375 14.8839C37.3751 15.0401 37.4373 15.1899 37.5477 15.3004C37.6582 15.4109 37.808 15.473 37.9643 15.4732ZM37.9643 14.5893C38.0225 14.5893 38.0795 14.6065 38.1279 14.6389C38.1764 14.6713 38.2142 14.7173 38.2365 14.7711C38.2588 14.825 38.2646 14.8842 38.2532 14.9414C38.2419 14.9985 38.2138 15.051 38.1726 15.0922C38.1314 15.1335 38.0789 15.1615 38.0217 15.1729C37.9646 15.1843 37.9053 15.1784 37.8515 15.1561C37.7977 15.1338 37.7516 15.0961 37.7193 15.0476C37.6869 14.9991 37.6696 14.9422 37.6696 14.8839C37.6697 14.8058 37.7007 14.7309 37.756 14.6756C37.8112 14.6204 37.8861 14.5893 37.9643 14.5893ZM46.0178 16.8482C45.9401 16.8482 45.8642 16.8712 45.7996 16.9144C45.735 16.9576 45.6846 17.0189 45.6549 17.0907C45.6251 17.1625 45.6174 17.2415 45.6325 17.3177C45.6477 17.3939 45.6851 17.4639 45.74 17.5188C45.795 17.5738 45.865 17.6112 45.9412 17.6264C46.0174 17.6415 46.0964 17.6337 46.1682 17.604C46.2399 17.5743 46.3013 17.5239 46.3445 17.4593C46.3876 17.3947 46.4107 17.3187 46.4107 17.241C46.4106 17.1369 46.3692 17.037 46.2955 16.9634C46.2218 16.8897 46.122 16.8483 46.0178 16.8482ZM46.0178 17.4375C45.979 17.4375 45.941 17.426 45.9087 17.4044C45.8764 17.3828 45.8512 17.3521 45.8363 17.3162C45.8215 17.2803 45.8176 17.2408 45.8252 17.2027C45.8327 17.1646 45.8515 17.1296 45.8789 17.1021C45.9064 17.0747 45.9414 17.056 45.9795 17.0484C46.0176 17.0408 46.0571 17.0447 46.093 17.0596C46.1289 17.0744 46.1596 17.0996 46.1811 17.1319C46.2027 17.1642 46.2143 17.2022 46.2143 17.241C46.2142 17.2931 46.1935 17.3431 46.1567 17.3799C46.1198 17.4167 46.0699 17.4374 46.0178 17.4375ZM23.0357 17.4375C23.1134 17.4375 23.1893 17.4144 23.2539 17.3713C23.3185 17.3281 23.3689 17.2667 23.3986 17.195C23.4284 17.1232 23.4361 17.0442 23.421 16.968C23.4058 16.8918 23.3684 16.8218 23.3135 16.7668C23.2585 16.7119 23.1885 16.6745 23.1123 16.6593C23.0361 16.6441 22.9571 16.6519 22.8853 16.6817C22.8136 16.7114 22.7522 16.7618 22.709 16.8264C22.6659 16.891 22.6428 16.9669 22.6428 17.0446C22.6429 17.1488 22.6844 17.2486 22.758 17.3223C22.8317 17.3959 22.9315 17.4374 23.0357 17.4375ZM23.0357 16.8482C23.0745 16.8482 23.1125 16.8597 23.1448 16.8813C23.1771 16.9029 23.2023 16.9336 23.2172 16.9694C23.232 17.0053 23.2359 17.0448 23.2283 17.0829C23.2208 17.121 23.202 17.156 23.1746 17.1835C23.1471 17.211 23.1121 17.2297 23.074 17.2373C23.0359 17.2449 22.9964 17.241 22.9605 17.2261C22.9246 17.2112 22.8939 17.186 22.8724 17.1537C22.8508 17.1214 22.8393 17.0835 22.8393 17.0446C22.8393 16.9925 22.86 16.9426 22.8968 16.9058C22.9337 16.869 22.9836 16.8482 23.0357 16.8482Z" fill="white"/>
<path d="M43.8572 42.6786H42.9617C43.0327 42.5598 43.0706 42.4241 43.0715 42.2857V18.7143C43.0708 18.5061 42.9879 18.3066 42.8406 18.1594C42.6934 18.0122 42.4939 17.9292 42.2857 17.9286H18.7143C18.5061 17.9292 18.3066 18.0122 18.1594 18.1594C18.0122 18.3066 17.9292 18.5061 17.9286 18.7143V42.2857C17.9295 42.4241 17.9674 42.5598 18.0384 42.6786H17.1429C17.0908 42.6786 17.0408 42.6993 17.004 42.7361C16.9672 42.773 16.9465 42.8229 16.9465 42.875C16.9465 42.9271 16.9672 42.9771 17.004 43.0139C17.0408 43.0508 17.0908 43.0714 17.1429 43.0714H43.8572C43.9093 43.0714 43.9592 43.0508 43.9961 43.0139C44.0329 42.9771 44.0536 42.9271 44.0536 42.875C44.0536 42.8229 44.0329 42.773 43.9961 42.7361C43.9592 42.6993 43.9093 42.6786 43.8572 42.6786ZM42.6786 42.2857C42.6785 42.3899 42.6371 42.4898 42.5634 42.5634C42.4898 42.6371 42.3899 42.6785 42.2857 42.6786H18.7143C18.6102 42.6785 18.5103 42.6371 18.4366 42.5634C18.363 42.4898 18.3216 42.3899 18.3215 42.2857V20.6786H42.6786V42.2857ZM42.6786 20.2857H18.3215V18.7143C18.3216 18.6101 18.363 18.5103 18.4366 18.4366C18.5103 18.363 18.6102 18.3216 18.7143 18.3214H42.2857C42.3899 18.3216 42.4898 18.363 42.5634 18.4366C42.6371 18.5103 42.6785 18.6101 42.6786 18.7143V20.2857ZM16.1607 42.6786H15.1786C15.1265 42.6786 15.0765 42.6993 15.0397 42.7361C15.0029 42.773 14.9822 42.8229 14.9822 42.875C14.9822 42.9271 15.0029 42.9771 15.0397 43.0139C15.0765 43.0508 15.1265 43.0714 15.1786 43.0714H16.1607C16.2128 43.0714 16.2628 43.0508 16.2996 43.0139C16.3365 42.9771 16.3572 42.9271 16.3572 42.875C16.3572 42.8229 16.3365 42.773 16.2996 42.7361C16.2628 42.6993 16.2128 42.6786 16.1607 42.6786Z" fill="white"/>
<path d="M14.1964 43.0714C14.3049 43.0714 14.3929 42.9835 14.3929 42.875C14.3929 42.7665 14.3049 42.6786 14.1964 42.6786C14.0879 42.6786 14 42.7665 14 42.875C14 42.9835 14.0879 43.0714 14.1964 43.0714Z" fill="white"/>
<path d="M45.8214 42.6786H44.8393C44.7872 42.6786 44.7372 42.6993 44.7004 42.7361C44.6635 42.773 44.6428 42.8229 44.6428 42.875C44.6428 42.9271 44.6635 42.9771 44.7004 43.0139C44.7372 43.0508 44.7872 43.0714 44.8393 43.0714H45.8214C45.8735 43.0714 45.9235 43.0508 45.9603 43.0139C45.9971 42.9771 46.0178 42.9271 46.0178 42.875C46.0178 42.8229 45.9971 42.773 45.9603 42.7361C45.9235 42.6993 45.8735 42.6786 45.8214 42.6786Z" fill="white"/>
<path d="M46.8036 43.0714C46.9121 43.0714 47 42.9835 47 42.875C47 42.7665 46.9121 42.6786 46.8036 42.6786C46.6951 42.6786 46.6072 42.7665 46.6072 42.875C46.6072 42.9835 46.6951 43.0714 46.8036 43.0714Z" fill="white"/>
<path d="M40.7139 19.3153C40.7204 19.207 40.6379 19.1139 40.5296 19.1075C40.4213 19.101 40.3282 19.1835 40.3218 19.2918C40.3153 19.4001 40.3978 19.4932 40.5061 19.4996C40.6144 19.5061 40.7075 19.4235 40.7139 19.3153Z" fill="white"/>
<path d="M19.3036 25.3927C19.4121 25.3927 19.5 25.3047 19.5 25.1962C19.5 25.0878 19.4121 24.9998 19.3036 24.9998C19.1951 24.9998 19.1072 25.0878 19.1072 25.1962C19.1072 25.3047 19.1951 25.3927 19.3036 25.3927Z" fill="white"/>
<path d="M41.6964 25.3927C41.8049 25.3927 41.8929 25.3047 41.8929 25.1962C41.8929 25.0878 41.8049 24.9998 41.6964 24.9998C41.5879 24.9998 41.5 25.0878 41.5 25.1962C41.5 25.3047 41.5879 25.3927 41.6964 25.3927Z" fill="white"/>
<path d="M15.4895 20.9754L15.7816 20.5914L15.5972 20.4869L15.4098 20.917H15.4035L15.213 20.4898L15.0254 20.5974L15.3143 20.9724V20.9785L14.8625 20.9202V21.1292L15.3175 21.0708V21.0769L15.0254 21.4517L15.2006 21.5625L15.4006 21.1292H15.4065L15.5909 21.5594L15.7846 21.4488L15.4895 21.0799V21.0738L15.9535 21.1292V20.9202L15.4895 20.9815V20.9754ZM19.1146 14.7307L19.2207 14.9784L19.3323 14.9148L19.1624 14.7022V14.6987L19.4295 14.7307V14.6103L19.1624 14.6457V14.6421L19.3305 14.4209L19.2244 14.3608L19.1164 14.6085H19.1129L19.0033 14.3624L18.895 14.4245L19.0616 14.6404V14.6439L18.8013 14.6103V14.7307L19.0634 14.6971V14.7007L18.895 14.9165L18.996 14.9802L19.1111 14.7307H19.1146ZM46.0179 24.8454V24.6405L45.5628 24.7008V24.6947L45.8494 24.318L45.6684 24.2155L45.4846 24.6374H45.4783L45.2915 24.2184L45.1074 24.3241L45.3909 24.6918V24.6979L44.9477 24.6405V24.8454L45.3938 24.7883V24.7943L45.1074 25.1621L45.2793 25.2707L45.4754 24.8454H45.4812L45.6622 25.2675L45.8521 25.1591L45.5628 24.7973V24.7912L46.0179 24.8454ZM28.4772 14.8884L28.2301 15.2057L28.3782 15.2994L28.5475 14.9326H28.5524L28.7086 15.2966L28.8724 15.2031L28.6228 14.891V14.8857L29.0154 14.9326V14.7559L28.6228 14.8077V14.8026L28.8699 14.4775L28.7139 14.3891L28.5552 14.7531H28.5501L28.3888 14.3917L28.2301 14.4828L28.4747 14.8001V14.8052L28.0922 14.7559V14.9326L28.4772 14.8831V14.8884ZM34.625 43.8571H26.375C26.3229 43.8571 26.273 43.8778 26.2361 43.9147C26.1993 43.9515 26.1786 44.0015 26.1786 44.0536C26.1786 44.1057 26.1993 44.1556 26.2361 44.1925C26.273 44.2293 26.3229 44.25 26.375 44.25H29.9107V44.6429H27.9465C27.8944 44.6429 27.8444 44.6636 27.8076 44.7004C27.7707 44.7372 27.75 44.7872 27.75 44.8393C27.75 44.8914 27.7707 44.9413 27.8076 44.9782C27.8444 45.015 27.8944 45.0357 27.9465 45.0357H33.25C33.3021 45.0357 33.3521 45.015 33.3889 44.9782C33.4258 44.9413 33.4465 44.8914 33.4465 44.8393C33.4465 44.7872 33.4258 44.7372 33.3889 44.7004C33.3521 44.6636 33.3021 44.6429 33.25 44.6429H31.0893V44.25H34.625C34.6771 44.25 34.7271 44.2293 34.7639 44.1925C34.8008 44.1556 34.8215 44.1057 34.8215 44.0536C34.8215 44.0015 34.8008 43.9515 34.7639 43.9147C34.7271 43.8778 34.6771 43.8571 34.625 43.8571ZM37.375 43.8571H35.4107C35.3586 43.8571 35.3087 43.8778 35.2718 43.9147C35.235 43.9515 35.2143 44.0015 35.2143 44.0536C35.2143 44.1057 35.235 44.1556 35.2718 44.1925C35.3087 44.2293 35.3586 44.25 35.4107 44.25H37.375C37.4271 44.25 37.4771 44.2293 37.5139 44.1925C37.5508 44.1556 37.5715 44.1057 37.5715 44.0536C37.5715 44.0015 37.5508 43.9515 37.5139 43.9147C37.4771 43.8778 37.4271 43.8571 37.375 43.8571ZM25.5893 43.8571H23.625C23.5729 43.8571 23.523 43.8778 23.4861 43.9147C23.4493 43.9515 23.4286 44.0015 23.4286 44.0536C23.4286 44.1057 23.4493 44.1556 23.4861 44.1925C23.523 44.2293 23.5729 44.25 23.625 44.25H25.5893C25.6414 44.25 25.6914 44.2293 25.7282 44.1925C25.7651 44.1556 25.7857 44.1057 25.7857 44.0536C25.7857 44.0015 25.7651 43.9515 25.7282 43.9147C25.6914 43.8778 25.6414 43.8571 25.5893 43.8571Z" fill="white"/>
</g>
<defs>
<clipPath id="clip0_126_2624">
<rect width="33" height="33" fill="white" transform="translate(14 14)"/>
</clipPath>
</defs>
</svg>
