<svg width="82" height="82" viewBox="0 0 82 82" fill="none" xmlns="http://www.w3.org/2000/svg">
<path d="M41 81C63.0914 81 81 63.0914 81 41C81 18.9086 63.0914 1 41 1C18.9086 1 1 18.9086 1 41C1 63.0914 18.9086 81 41 81Z" stroke="black" stroke-width="2" stroke-linecap="round" stroke-linejoin="round"/>
<g clip-path="url(#clip0_158_2560)">
<path d="M57.5 40.5C57.5 39.7222 56.895 39.1111 56.125 39.1111L31.375 39.1111C30.605 39.1111 30 39.7222 30 40.5C30 41.2778 30.605 41.8889 31.375 41.8889L56.125 41.8889C56.895 41.8889 57.5 41.2778 57.5 40.5Z" fill="black"/>
<path d="M39.625 50.2222C39.6272 50.04 39.5917 49.8594 39.5206 49.692C39.4496 49.5246 39.3446 49.374 39.2125 49.25L30.55 40.5L39.2125 31.75C39.7625 31.1944 39.7625 30.3333 39.2125 29.7778C38.6625 29.2222 37.81 29.2222 37.26 29.7778L27.635 39.5C27.085 40.0555 27.085 40.9166 27.635 41.4722L37.26 51.1944C37.81 51.75 38.6625 51.75 39.2125 51.1944C39.4875 50.9166 39.625 50.5555 39.625 50.2222Z" fill="black"/>
</g>
<defs>
<clipPath id="clip0_158_2560">
<rect width="25" height="44" fill="white" transform="matrix(0 1 1 0 19 28)"/>
</clipPath>
</defs>
</svg>
