<svg width="82" height="82" viewBox="0 0 82 82" fill="none" xmlns="http://www.w3.org/2000/svg">
<path d="M41 81C63.0914 81 81 63.0914 81 41C81 18.9086 63.0914 1 41 1C18.9086 1 1 18.9086 1 41C1 63.0914 18.9086 81 41 81Z" stroke="black" stroke-width="2" stroke-linecap="round" stroke-linejoin="round"/>
<path d="M40.5 57.5C39.7222 57.5 39.1111 56.895 39.1111 56.125V31.375C39.1111 30.605 39.7222 30 40.5 30C41.2778 30 41.8889 30.605 41.8889 31.375V56.125C41.8889 56.895 41.2778 57.5 40.5 57.5Z" fill="black"/>
<path d="M50.2222 39.625C50.04 39.6272 49.8594 39.5917 49.692 39.5206C49.5246 39.4496 49.374 39.3446 49.25 39.2125L40.5 30.55L31.75 39.2125C31.1944 39.7625 30.3333 39.7625 29.7778 39.2125C29.2222 38.6625 29.2222 37.81 29.7778 37.26L39.5 27.635C40.0555 27.085 40.9166 27.085 41.4722 27.635L51.1944 37.26C51.75 37.81 51.75 38.6625 51.1944 39.2125C50.9166 39.4875 50.5555 39.625 50.2222 39.625Z" fill="black"/>
</svg>
