<svg width="82" height="82" viewBox="0 0 82 82" fill="none" xmlns="http://www.w3.org/2000/svg">
<path d="M41 81C63.0914 81 81 63.0914 81 41C81 18.9086 63.0914 1 41 1C18.9086 1 1 18.9086 1 41C1 63.0914 18.9086 81 41 81Z" stroke="black" stroke-width="2" stroke-linecap="round" stroke-linejoin="round"/>
<g clip-path="url(#clip0_158_2562)">
<path d="M24.5 40.5C24.5 41.2778 25.105 41.8889 25.875 41.8889H50.625C51.395 41.8889 52 41.2778 52 40.5C52 39.7222 51.395 39.1111 50.625 39.1111H25.875C25.105 39.1111 24.5 39.7222 24.5 40.5Z" fill="black"/>
<path d="M42.375 30.7778C42.3728 30.96 42.4083 31.1406 42.4794 31.308C42.5504 31.4754 42.6554 31.626 42.7875 31.75L51.45 40.5L42.7875 49.25C42.2375 49.8056 42.2375 50.6667 42.7875 51.2222C43.3375 51.7778 44.19 51.7778 44.74 51.2222L54.365 41.5C54.915 40.9445 54.915 40.0834 54.365 39.5278L44.74 29.8056C44.19 29.25 43.3375 29.25 42.7875 29.8056C42.5125 30.0834 42.375 30.4445 42.375 30.7778Z" fill="black"/>
</g>
<defs>
<clipPath id="clip0_158_2562">
<rect width="25" height="44" fill="white" transform="matrix(0 -1 -1 0 63 53)"/>
</clipPath>
</defs>
</svg>
