<svg width="60" height="60" viewBox="0 0 60 60" fill="none" xmlns="http://www.w3.org/2000/svg">
<g clip-path="url(#clip0_756_2527)">
<mask id="path-2-inside-1_756_2527" fill="white">
<path d="M8.98495 50.6831C21.2187 63.2124 41.2397 62.9346 52.3848 50.8759C63.2663 39.1022 62.1815 20.1784 51.0768 8.95862C39.8191 -2.41551 20.8637 -3.20268 9.33309 7.99744C-8.58717 25.6111 4.64078 46.3281 5.58271 46.8982"/>
</mask>
<path d="M9.70044 49.9845C9.31461 49.5893 8.68149 49.5817 8.28633 49.9676C7.89117 50.3534 7.88362 50.9865 8.26945 51.3817L9.70044 49.9845ZM52.3848 50.8759L53.1192 51.5546L53.1192 51.5546L52.3848 50.8759ZM51.0768 8.95862L51.7875 8.25517L51.7875 8.25516L51.0768 8.95862ZM9.33309 7.99744L8.63633 7.28012L8.63211 7.28426L9.33309 7.99744ZM5.06486 47.7537C5.53733 48.0397 6.15219 47.8886 6.43818 47.4161C6.72418 46.9436 6.57302 46.3288 6.10055 46.0428L5.06486 47.7537ZM8.26945 51.3817C20.8862 64.3033 41.5694 64.0512 53.1192 51.5546L51.6504 50.1971C40.91 61.818 21.5511 62.1214 9.70044 49.9845L8.26945 51.3817ZM53.1192 51.5546C64.3913 39.3583 63.2394 19.8257 51.7875 8.25517L50.3661 9.66208C61.1236 20.5311 62.1413 38.8461 51.6504 50.1971L53.1192 51.5546ZM51.7875 8.25516C40.1691 -3.48337 20.5857 -4.3268 8.63634 7.28013L10.0298 8.71475C21.1416 -2.07857 39.469 -1.34766 50.3661 9.66209L51.7875 8.25516ZM8.63211 7.28426C-0.599622 16.3581 -1.82873 26.2859 -0.603019 33.9962C0.00725708 37.835 1.22343 41.1205 2.3482 43.4858C2.91086 44.6691 3.4544 45.6299 3.8946 46.3221C4.11407 46.6672 4.31296 46.9535 4.48037 47.171C4.56352 47.279 4.64599 47.3792 4.72487 47.4647C4.78413 47.5289 4.90607 47.6576 5.06486 47.7537L6.10055 46.0428C6.20047 46.1033 6.23955 46.157 6.19459 46.1083C6.16926 46.0808 6.12618 46.0302 6.06508 45.9509C5.94398 45.7936 5.7796 45.5592 5.58222 45.2488C5.18873 44.6301 4.6843 43.7413 4.15439 42.6269C3.094 40.397 1.9466 37.2955 1.37218 33.6822C0.228497 26.4879 1.34555 17.2505 10.0341 8.71062L8.63211 7.28426Z" fill="black" mask="url(#path-2-inside-1_756_2527)"/>
<path d="M11.6902 40.4575C10.6798 40.5386 10.1684 18.5426 11.9396 18.1719C13.7108 17.8013 20.597 16.9646 24.8632 18.3229C29.1295 19.6811 27.5463 26.4447 24.1648 27.4785C20.7461 28.5234 19.0087 27.9934 19.0252 29.0882C19.0417 30.1829 21.4203 29.8428 24.0648 30.0942C30.5516 30.3713 29.9528 40.0678 23.516 40.4074C17.0792 40.7469 15.1332 40.4074 15.1332 40.4074M38.9344 32.5092C42.0947 32.5596 47.8912 32.5596 48.4151 31.7546C48.939 30.9496 48.9142 25.0137 42.178 24.7619C35.4418 24.5102 33.6523 28.7287 33.7951 33.4648C33.9197 37.5903 34.4688 41.2111 41.6292 41.212C48.7896 41.213 48.5651 37.2882 48.5651 37.2882M36.7887 19.6811C39.8158 19.5972 42.8429 19.8151 45.87 19.7315" stroke="black" stroke-miterlimit="10" stroke-linecap="round" stroke-linejoin="round"/>
</g>
<defs>
<clipPath id="clip0_756_2527">
<rect width="60" height="60" fill="white"/>
</clipPath>
</defs>
</svg>
