<svg width="82" height="82" viewBox="0 0 82 82" fill="none" xmlns="http://www.w3.org/2000/svg">
<path d="M41 81C63.0914 81 81 63.0914 81 41C81 18.9086 63.0914 1 41 1C18.9086 1 1 18.9086 1 41C1 63.0914 18.9086 81 41 81Z" stroke="black" stroke-width="2" stroke-linecap="round" stroke-linejoin="round"/>
<path d="M34.0278 39.5645C43.3228 39.5645 43.3228 52 34.0278 52H22.6666V39.5645M34.0278 39.5645H22.6666M34.0278 39.5645C43.3228 39.5645 43.3228 28.1667 34.0278 28.1667H22.6666V39.5645M44.6666 43.75C44.6666 39.1942 47.9483 35.5 52 35.5C56.0516 35.5 59.3333 39.1942 59.3333 43.75H44.6666ZM44.6666 43.75C44.6666 48.3059 47.9483 52 52 52C57.0508 52 58.4166 48.3334 58.4166 48.3334M56.5833 30H47.4166" stroke="black" stroke-width="2" stroke-linecap="round" stroke-linejoin="round"/>
</svg>
