<svg width="82" height="82" viewBox="0 0 82 82" fill="none" xmlns="http://www.w3.org/2000/svg">
<path d="M41 81C63.0914 81 81 63.0914 81 41C81 18.9086 63.0914 1 41 1C18.9086 1 1 18.9086 1 41C1 63.0914 18.9086 81 41 81Z" stroke="black" stroke-width="2" stroke-linecap="round" stroke-linejoin="round"/>
<path d="M38.8 27.8C37.1214 27.8 35.555 28.2686 34.2196 29.0848C34.0818 28.3465 33.8302 27.634 33.4738 26.9728C35.1487 26.0459 37.0364 25.5722 38.9504 25.5984C40.8645 25.6245 42.7385 26.1497 44.3874 27.122C46.0363 28.0943 47.4029 29.4801 48.3522 31.1423C49.3014 32.8046 49.8005 34.6858 49.8 36.6H55.3022C56.1771 36.6006 57.0159 36.9485 57.6343 37.5673C58.2527 38.1861 58.6 39.0252 58.6 39.9V53.1C58.6 53.9752 58.2523 54.8146 57.6335 55.4334C57.0146 56.0523 56.1752 56.4 55.3 56.4H42.1C41.2248 56.4 40.3854 56.0523 39.7666 55.4334C39.1477 54.8146 38.8 53.9752 38.8 53.1V47.6C37.2698 47.6008 35.7562 47.2824 34.356 46.665C34.3854 45.9185 34.4 45.1301 34.4 44.3V44.223C35.6936 44.971 37.1962 45.4 38.8 45.4V39.9C38.8 39.0248 39.1477 38.1854 39.7666 37.5665C40.3854 36.9477 41.2248 36.6 42.1 36.6H47.6C47.6 34.2661 46.6729 32.0278 45.0226 30.3775C43.3722 28.7271 41.1339 27.8 38.8 27.8ZM49.58 38.8C49.1462 40.9128 48.1021 42.8518 46.577 44.377C45.0519 45.9021 43.1128 46.9462 41 47.38V53.1C41 53.3917 41.1159 53.6715 41.3222 53.8778C41.5285 54.0841 41.8083 54.2 42.1 54.2H55.3C55.5918 54.2 55.8716 54.0841 56.0778 53.8778C56.2841 53.6715 56.4 53.3917 56.4 53.1V39.9C56.4 39.6083 56.2841 39.3285 56.0778 39.1222C55.8716 38.9159 55.5918 38.8 55.3 38.8H49.58ZM47.3228 38.8H42.1C41.8083 38.8 41.5285 38.9159 41.3222 39.1222C41.1159 39.3285 41 39.6083 41 39.9V45.1228C42.5217 44.7279 43.9102 43.9335 45.0218 42.8218C46.1335 41.7102 46.9279 40.3217 47.3228 38.8ZM29.0782 23.675C29.2608 23.8347 29.3855 24.0503 29.4329 24.2883C29.4802 24.5262 29.4476 24.7731 29.34 24.9906C29.3205 25.0548 29.3108 25.1215 29.3114 25.1886C29.3114 25.3272 29.3466 25.5912 29.6788 25.9212C29.8394 26.0818 29.9626 26.1962 30.0968 26.3216C30.2068 26.4228 30.3234 26.5284 30.4708 26.6736C30.7568 26.9464 31.0582 27.2676 31.3288 27.6702C31.8898 28.5128 32.2 29.5666 32.2 31.1C32.2 32.9766 31.5048 34.576 30.4202 35.5572L30.561 35.72C31.177 36.4768 31.5356 37.458 31.76 38.426C32.2 40.34 32.2 42.6412 32.2 44.245V44.3C32.2 50.4314 31.3662 53.9096 30.4488 55.8984C29.9868 56.8994 29.4962 57.5374 29.0716 57.9378C28.8988 58.1031 28.7085 58.2492 28.504 58.3734C28.4103 58.4297 28.3125 58.479 28.2114 58.5208C28.2114 58.5208 27.9628 58.6 27.8 58.6C27.6372 58.6 27.3886 58.5208 27.3886 58.5208C27.2876 58.479 27.1898 58.4297 27.096 58.3734C26.8916 58.2492 26.7013 58.1031 26.5284 57.9378C26.1038 57.5352 25.6132 56.8994 25.1512 55.8984C24.2338 53.9096 23.4 50.4314 23.4 44.3V44.245C23.4 42.639 23.4 40.34 23.84 38.426C24.0644 37.458 24.423 36.4768 25.039 35.72C25.083 35.6643 25.13 35.61 25.1798 35.5572C24.0952 34.576 23.4 32.9766 23.4 31.1C23.4 30.3828 23.5914 29.527 23.8554 28.7372C24.1194 27.9474 24.489 27.1268 24.9158 26.4668C25.424 25.6088 26.139 24.8894 26.6934 24.4054C26.9985 24.1394 27.3156 23.8876 27.6438 23.6508L27.7098 23.6068L27.7296 23.5914L27.7362 23.587L27.7406 23.5848C27.9424 23.4503 28.1829 23.3863 28.4248 23.4026C28.6666 23.4189 28.8964 23.5147 29.0782 23.675ZM27.8 34.4C28.6514 34.3978 30 33.454 30 31.1C30 29.8834 29.7602 29.2872 29.4962 28.8912C29.3353 28.6602 29.1502 28.4471 28.944 28.2554L28.6712 28.0002C28.493 27.833 28.284 27.6394 28.1212 27.4788C27.8812 27.2401 27.6747 26.97 27.5074 26.6758C27.2275 26.9703 26.981 27.295 26.7726 27.6438C26.4646 28.1168 26.1654 28.7658 25.9432 29.4346C25.7144 30.1166 25.6 30.7194 25.6 31.1C25.6 33.4584 26.953 34.4 27.8 34.4ZM26.744 37.1104C26.4316 37.491 26.172 38.0982 25.9828 38.921C25.6044 40.5666 25.6 42.6346 25.6 44.3C25.6 50.2686 26.4162 53.3904 27.1488 54.9766C27.3908 55.498 27.6174 55.8456 27.8 56.0766C28.0591 55.7365 28.2777 55.3673 28.4512 54.9766C29.1838 53.3904 30 50.2686 30 44.3C30 42.6346 29.9956 40.5666 29.615 38.921C29.4258 38.0982 29.1662 37.491 28.856 37.1104C28.7349 36.9457 28.5754 36.8131 28.3914 36.7241C28.2073 36.6352 28.0043 36.5926 27.8 36.6H27.7956C27.5921 36.5933 27.3899 36.6362 27.2067 36.7252C27.0235 36.8141 26.8647 36.9463 26.744 37.1104Z" fill="black"/>
</svg>
