<svg width="61" height="61" viewBox="0 0 61 61" fill="none" xmlns="http://www.w3.org/2000/svg">
<path fill-rule="evenodd" clip-rule="evenodd" d="M29.5244 0.0175854C45.3594 -0.532161 59.883 11.8708 60.9397 28.336C62.0216 45.1955 48.4032 60.5126 30.8401 60.9998C30.5641 61.0075 30.3341 60.7899 30.3264 60.5139C30.3188 60.2378 30.5363 60.0078 30.8124 60.0002C47.8081 59.5287 60.9875 44.6952 59.9418 28.4001C58.9209 12.4943 44.8736 0.48531 29.5591 1.01698C14.0358 1.55573 0.818662 14.8868 1.00188 30.8823C1.21882 43.4127 7.18117 50.7333 13.2099 54.8999C16.2319 56.9885 19.2746 58.2863 21.6249 59.0421C22.7998 59.4199 23.7974 59.661 24.5278 59.7977C24.8936 59.8661 25.1875 59.9075 25.4002 59.9273C25.507 59.9373 25.5875 59.9412 25.643 59.9413C25.6695 59.9413 25.685 59.9404 25.6918 59.9399C25.9484 59.8795 26.2105 60.0297 26.2857 60.2857C26.3636 60.5507 26.2119 60.8286 25.947 60.9064C25.8403 60.9378 25.7233 60.9413 25.6418 60.9413C25.5458 60.9411 25.4329 60.9347 25.3076 60.923C25.056 60.8996 24.7304 60.853 24.3438 60.7806C23.5694 60.6357 22.5309 60.3839 21.3187 59.9941C18.8949 59.2146 15.7595 57.8776 12.6414 55.7226C6.39028 51.4023 0.224925 43.8007 0.00200899 30.8982L0.00196747 30.8953C-0.188453 14.3441 13.4697 0.574781 29.5244 0.0175854Z" fill="black"/>
<path d="M19.75 19.75L42.25 42.25M19.75 42.25L42.25 19.75" stroke="black" stroke-width="1.5" stroke-linecap="round" stroke-linejoin="round"/>
</svg>
