<svg width="82" height="82" viewBox="0 0 82 82" fill="none" xmlns="http://www.w3.org/2000/svg">
<path d="M41 81C63.0914 81 81 63.0914 81 41C81 18.9086 63.0914 1 41 1C18.9086 1 1 18.9086 1 41C1 63.0914 18.9086 81 41 81Z" stroke="black" stroke-width="2" stroke-linecap="round" stroke-linejoin="round"/>
<path d="M51.8405 28.2207L41 39.0612L30.1595 28.2207C29.8988 27.9821 29.5561 27.8533 29.2027 27.8612C28.8494 27.869 28.5127 28.0128 28.2628 28.2627C28.0129 28.5126 27.869 28.8493 27.8612 29.2027C27.8534 29.556 27.9822 29.8987 28.2208 30.1595L39.0558 41L28.218 51.8377C28.0856 51.9639 27.9798 52.1153 27.9067 52.283C27.8337 52.4506 27.7949 52.6312 27.7926 52.8141C27.7903 52.997 27.8246 53.1785 27.8935 53.3479C27.9624 53.5174 28.0645 53.6713 28.1937 53.8007C28.323 53.9302 28.4768 54.0324 28.6461 54.1016C28.8154 54.1707 28.9969 54.2053 29.1798 54.2033C29.3627 54.2013 29.5433 54.1627 29.7111 54.0899C29.8789 54.0171 30.0304 53.9114 30.1568 53.7792L41 42.9415L51.8405 53.782C52.1013 54.0206 52.444 54.1494 52.7973 54.1415C53.1507 54.1337 53.4873 53.9898 53.7373 53.7399C53.9872 53.49 54.131 53.1533 54.1388 52.8C54.1467 52.4467 54.0179 52.1039 53.7793 51.8432L42.9388 41.0027L53.7793 30.1595C53.9117 30.0333 54.0175 29.8819 54.0906 29.7142C54.1637 29.5465 54.2025 29.366 54.2047 29.1831C54.207 29.0002 54.1727 28.8187 54.1038 28.6492C54.0349 28.4798 53.9328 28.3259 53.8036 28.1964C53.6744 28.067 53.5205 27.9647 53.3512 27.8956C53.1819 27.8265 53.0004 27.7919 52.8175 27.7939C52.6346 27.7959 52.454 27.8345 52.2862 27.9073C52.1184 27.9801 51.9669 28.0857 51.8405 28.218V28.2207Z" fill="black"/>
</svg>
