<svg width="82" height="82" viewBox="0 0 82 82" fill="none" xmlns="http://www.w3.org/2000/svg">
<path d="M41 81C63.0914 81 81 63.0914 81 41C81 18.9086 63.0914 1 41 1C18.9086 1 1 18.9086 1 41C1 63.0914 18.9086 81 41 81Z" stroke="black" stroke-width="2" stroke-linecap="round" stroke-linejoin="round"/>
<g clip-path="url(#clip0_142_2744)">
<path d="M59.3334 21.4445H46.0112C45.687 21.4445 45.3761 21.5732 45.1469 21.8024C44.9177 22.0316 44.7889 22.3425 44.7889 22.6667C44.7889 22.9908 44.9177 23.3017 45.1469 23.5309C45.3761 23.7601 45.687 23.8889 46.0112 23.8889H56.4367L45.6567 34.8889C45.5444 35.0037 45.4557 35.1394 45.3958 35.2885C45.3359 35.4375 45.306 35.5968 45.3077 35.7574C45.3094 35.918 45.3427 36.0767 45.4058 36.2244C45.4688 36.3721 45.5603 36.506 45.6751 36.6183C45.7898 36.7307 45.9256 36.8193 46.0746 36.8792C46.2236 36.9391 46.383 36.9691 46.5436 36.9674C46.7042 36.9657 46.8629 36.9323 47.0106 36.8693C47.1583 36.8063 47.2921 36.7148 47.4045 36.6L58.1112 25.6733V35.9889C58.1112 36.3131 58.2399 36.6239 58.4691 36.8531C58.6984 37.0824 59.0092 37.2111 59.3334 37.2111C59.6575 37.2111 59.9684 37.0824 60.1976 36.8531C60.4268 36.6239 60.5556 36.3131 60.5556 35.9889V22.6667C60.5556 22.3425 60.4268 22.0316 60.1976 21.8024C59.9684 21.5732 59.6575 21.4445 59.3334 21.4445Z" fill="black"/>
<path d="M33.1044 32.1144L22.1044 38.4333C21.9179 38.541 21.7631 38.6961 21.6558 38.8828C21.5485 39.0695 21.4924 39.2813 21.4933 39.4967V52.9411C21.4924 53.1565 21.5485 53.3682 21.6558 53.555C21.7631 53.7417 21.9179 53.8967 22.1044 54.0044L33.1044 60.2989C33.2902 60.4061 33.501 60.4626 33.7155 60.4626C33.9301 60.4626 34.1408 60.4061 34.3266 60.2989L45.3266 54.0044C45.5131 53.8967 45.6679 53.7417 45.7752 53.555C45.8825 53.3682 45.9386 53.1565 45.9377 52.9411V39.4967C45.9386 39.2813 45.8825 39.0695 45.7752 38.8828C45.6679 38.6961 45.5131 38.541 45.3266 38.4333L34.3266 32.1144C34.1408 32.0072 33.9301 31.9507 33.7155 31.9507C33.501 31.9507 33.2902 32.0072 33.1044 32.1144ZM32.4444 56.9867L23.8889 52.0978V41.5378L32.4444 46.4267V56.9867ZM33.6666 44.6667L24.8789 39.6189L33.6666 34.62L42.4789 39.6555L33.6666 44.6667ZM43.4444 52.11L34.8889 56.9989V46.4267L43.4444 41.5378V52.11Z" fill="black"/>
</g>
<defs>
<clipPath id="clip0_142_2744">
<rect width="44" height="44" fill="white" transform="translate(19 19)"/>
</clipPath>
</defs>
</svg>
