<svg width="61" height="61" viewBox="0 0 61 61" fill="none" xmlns="http://www.w3.org/2000/svg">
<path fill-rule="evenodd" clip-rule="evenodd" d="M29.5244 0.0175854C45.3594 -0.532161 59.883 11.8708 60.9397 28.336C62.0216 45.1955 48.4032 60.5126 30.8401 60.9998C30.5641 61.0075 30.3341 60.7899 30.3264 60.5139C30.3188 60.2378 30.5363 60.0078 30.8124 60.0002C47.8081 59.5287 60.9875 44.6952 59.9418 28.4001C58.9209 12.4943 44.8736 0.48531 29.5591 1.01698L29.5442 0.588587L29.5591 1.01698C14.0358 1.55573 0.818662 14.8868 1.00188 30.8823C1.21882 43.4127 7.18117 50.7333 13.2099 54.8999C16.2319 56.9885 19.2746 58.2863 21.6249 59.0421C22.7998 59.4199 23.7974 59.661 24.5278 59.7977C24.8936 59.8661 25.1875 59.9075 25.4002 59.9273C25.507 59.9373 25.5875 59.9412 25.643 59.9413C25.6695 59.9413 25.685 59.9404 25.6918 59.9399C25.9484 59.8795 26.2105 60.0297 26.2857 60.2857C26.3636 60.5507 26.2119 60.8286 25.947 60.9064C25.8403 60.9378 25.7233 60.9413 25.6418 60.9413C25.5458 60.9411 25.4329 60.9347 25.3076 60.923C25.056 60.8996 24.7304 60.853 24.3438 60.7806C23.5694 60.6357 22.5309 60.3839 21.3187 59.9941C18.8949 59.2146 15.7595 57.8776 12.6414 55.7226C6.39028 51.4023 0.224925 43.8007 0.00200899 30.8982L0.00196747 30.8953C-0.188453 14.3441 13.4697 0.574781 29.5244 0.0175854Z" fill="white"/>
<path d="M28.518 18C27.303 18 26.288 18.874 26.064 20.025H20.518V26.086L19.957 25.526L19.25 26.232L20.984 27.967C20.8635 27.9748 20.7498 28.0259 20.664 28.111L17.13 31.646C17.0835 31.6924 17.0465 31.7476 17.0213 31.8084C16.9961 31.8691 16.9832 31.9342 16.9832 32C16.9832 32.0658 16.9961 32.1309 17.0213 32.1916C17.0465 32.2524 17.0835 32.3076 17.13 32.354L20.665 35.891C20.756 35.9818 20.8785 36.0341 21.007 36.037L19.25 37.793L19.957 38.5L20.517 37.94V42H26.068V42.002C26.1851 42.5656 26.4925 43.0718 26.9386 43.4356C27.3847 43.7994 27.9424 43.9987 28.518 44H33.518C34.0937 43.998 34.6512 43.7982 35.0971 43.4341C35.5429 43.07 35.8501 42.5637 35.967 42H41.017V36.44L41.578 37L42.285 36.293L40.518 34.525L38.75 36.293L39.457 37L40.017 36.44V41H35.967C35.8507 40.4358 35.5436 39.929 35.0974 39.5647C34.6512 39.2004 34.0931 39.001 33.517 39H28.517C27.9412 39.0012 27.3833 39.2008 26.9373 39.565C26.4913 39.9293 26.1843 40.436 26.068 41H21.518V37.939L22.078 38.5L22.785 37.793L21.029 36.037C21.1576 36.0341 21.2801 35.9818 21.371 35.891L24.906 32.354C24.9526 32.3076 24.9896 32.2524 25.0148 32.1916C25.04 32.1309 25.0529 32.0658 25.0529 32C25.0529 31.9342 25.04 31.8691 25.0148 31.8084C24.9896 31.7476 24.9526 31.6924 24.906 31.646L21.371 28.111C21.2853 28.0259 21.1716 27.9748 21.051 27.967L22.785 26.232L22.078 25.525L21.518 26.085V21.026H26.076C26.1973 21.584 26.5054 22.0839 26.9495 22.4429C27.3936 22.8019 27.947 22.9984 28.518 23H33.518C34.713 23 35.716 22.15 35.959 21.025H40.018V27.586L39.457 27.026L38.75 27.732L40.518 29.5L42.285 27.732L41.578 27.025L41.018 27.585V20.026H35.97C35.8591 19.4566 35.554 18.9434 35.1069 18.5739C34.6597 18.2044 34.0981 18.0016 33.518 18H28.518ZM40.518 29.5H36.518C36.3854 29.5 36.2583 29.5527 36.1645 29.6464C36.0707 29.7402 36.018 29.8674 36.018 30V34.488L36.518 34.5H44.518C44.6507 34.5 44.7778 34.4473 44.8716 34.3536C44.9654 34.2598 45.018 34.1326 45.018 34V30C45.018 29.8674 44.9654 29.7402 44.8716 29.6464C44.7778 29.5527 44.6507 29.5 44.518 29.5H40.518ZM28.518 19H33.518C34.358 19 35.018 19.66 35.018 20.5C35.018 21.34 34.358 22 33.518 22H28.518C27.678 22 27.018 21.34 27.018 20.5C27.018 19.66 27.678 19 28.518 19ZM21.018 29.172L23.846 32L21.018 34.83L18.189 32L21.018 29.172ZM37.018 30.5H44.018V33.5H37.018V30.5ZM28.518 40H33.518C34.358 40 35.018 40.66 35.018 41.5C35.018 42.34 34.358 43 33.518 43H28.518C27.678 43 27.018 42.34 27.018 41.5C27.018 40.66 27.678 40 28.518 40Z" fill="url(#paint0_linear_126_2625)"/>
<defs>
<linearGradient id="paint0_linear_126_2625" x1="16.983" y1="31" x2="42" y2="31" gradientUnits="userSpaceOnUse">
<stop stop-color="white"/>
<stop offset="1" stop-color="white"/>
</linearGradient>
</defs>
</svg>
