<svg width="82" height="82" viewBox="0 0 82 82" fill="none" xmlns="http://www.w3.org/2000/svg">
<path d="M41 81C63.0914 81 81 63.0914 81 41C81 18.9086 63.0914 1 41 1C18.9086 1 1 18.9086 1 41C1 63.0914 18.9086 81 41 81Z" stroke="black" stroke-width="2" stroke-linecap="round" stroke-linejoin="round"/>
<path d="M41.0001 26.7715V50.8667M41.0001 50.8667V56.7334C41.0001 57.8937 40.656 59.0279 40.0113 59.9927C39.3667 60.9575 38.4505 61.7094 37.3785 62.1535C36.3065 62.5975 35.1269 62.7137 33.9889 62.4873C32.8508 62.2609 31.8055 61.7022 30.985 60.8817C30.1646 60.0613 29.6058 59.0159 29.3795 57.8779C29.1531 56.7399 29.2693 55.5603 29.7133 54.4883C30.1573 53.4163 30.9093 52.5 31.874 51.8554C32.8388 51.2108 33.9731 50.8667 35.1334 50.8667M41.0001 50.8667H35.1334M35.1334 50.8667C33.5775 50.8667 32.0852 50.2486 30.985 49.1484C29.8848 48.0482 29.2667 46.556 29.2667 45C29.2667 43.4441 29.8848 41.9519 30.985 40.8517C32.0852 39.7515 33.5775 39.1334 35.1334 39.1334M35.1334 39.1334H41.0001M35.1334 39.1334H46.8667M35.1334 39.1334C33.5775 39.1334 32.0852 38.5153 30.985 37.4151C29.8848 36.3148 29.2667 34.8226 29.2667 33.2667C29.2667 31.7108 29.8848 30.2186 30.985 29.1183C32.0852 28.0181 33.5775 27.4 35.1334 27.4H46.8667C48.4227 27.4 49.9149 28.0181 51.0151 29.1183C52.1153 30.2186 52.7334 31.7108 52.7334 33.2667C52.7334 34.8226 52.1153 36.3148 51.0151 37.4151C49.9149 38.5153 48.4227 39.1334 46.8667 39.1334M46.8667 39.1334C48.4227 39.1334 49.9149 39.7515 51.0151 40.8517C52.1153 41.9519 52.7334 43.4441 52.7334 45C52.7334 46.556 52.1153 48.0482 51.0151 49.1484C49.9149 50.2486 48.4227 50.8667 46.8667 50.8667C45.3108 50.8667 43.8186 50.2486 42.7184 49.1484C41.6182 48.0482 41.0001 46.556 41.0001 45C41.0001 43.4441 41.6182 41.9519 42.7184 40.8517C43.8186 39.7515 45.3108 39.1334 46.8667 39.1334Z" stroke="black" stroke-width="2"/>
</svg>
