<svg width="82" height="82" viewBox="0 0 82 82" fill="none" xmlns="http://www.w3.org/2000/svg">
<path d="M41 81C63.0914 81 81 63.0914 81 41C81 18.9086 63.0914 1 41 1C18.9086 1 1 18.9086 1 41C1 63.0914 18.9086 81 41 81Z" stroke="black" stroke-width="2" stroke-linecap="round" stroke-linejoin="round"/>
<path d="M41 21.2917C36.3185 21.2893 31.7891 22.9534 28.2228 25.9861C24.6564 29.0187 22.286 33.2218 21.5361 37.8428C20.7861 42.4638 21.7056 47.2009 24.1298 51.2058C26.5541 55.2106 30.3247 58.2218 34.7667 59.7C35.7567 59.8834 36.1142 59.2784 36.1142 58.7834V55.4375C30.6142 56.6292 29.4775 52.7975 29.4775 52.7975C29.1137 51.5852 28.3222 50.5461 27.25 49.8734C25.4625 48.6542 27.3875 48.6725 27.3875 48.6725C28.0119 48.7599 28.6081 48.9886 29.1307 49.3413C29.6533 49.694 30.0886 50.1612 30.4033 50.7075C32.1633 53.7234 34.9867 52.8525 36.1417 52.3484C36.2321 51.3468 36.6775 50.4104 37.3975 49.7084C33.0158 49.2134 28.4142 47.5267 28.4142 39.9734C28.3861 38.014 29.115 36.1194 30.4492 34.6842C29.8427 32.9851 29.9116 31.1181 30.6417 29.4684C30.6417 29.4684 32.2917 28.9367 36.0592 31.485C39.2881 30.605 42.6936 30.605 45.9225 31.485C49.69 28.9367 51.34 29.4684 51.34 29.4684C52.0646 31.1194 52.1334 32.9843 51.5325 34.6842C52.8649 36.1198 53.5908 38.0149 53.5583 39.9734C53.5583 47.545 48.975 49.2042 44.5658 49.6992C45.0389 50.1785 45.4033 50.7541 45.6343 51.3868C45.8652 52.0195 45.9572 52.6944 45.9042 53.3659V58.7742C45.9042 59.425 46.2617 59.9109 47.2608 59.6909C51.6982 58.2069 55.4629 55.1926 57.8814 51.1872C60.3 47.1817 61.2146 42.4465 60.4616 37.8285C59.7087 33.2106 57.3373 29.0111 53.7717 25.9814C50.2061 22.9516 45.679 21.2893 41 21.2917Z" stroke="black" stroke-width="2" stroke-linecap="round" stroke-linejoin="round"/>
</svg>
