<svg width="60" height="60" viewBox="0 0 60 60" fill="none" xmlns="http://www.w3.org/2000/svg">
<g clip-path="url(#clip0_756_2526)">
<mask id="path-2-inside-1_756_2526" fill="white">
<path d="M30.6416 60C49.5889 58.922 62.8544 44.2229 59.4727 24.692C56.7194 8.78979 41.4725 -1.86109 26.0528 0.271326C10.4211 2.43284 -1.60293 17.2337 0.174504 33.3351C1.86093 47.8392 10.5877 54.6199 17.8673 57.6824C19.562 58.3955 21.8398 59.4357 22.6094 59.2672C23.3789 59.0987 23.132 54.7362 23.132 52.6332C18.389 53.3785 16.766 51.4691 15.7581 50.3411C14.6148 49.0615 13.9425 47.7459 12.7751 45.8138C11.6077 43.8817 9.49564 44.3363 9.27331 43.2186C9.05098 42.1008 13.7198 42.4039 17.0734 46.6281C19.5006 49.7031 22.0915 48.7766 23.4839 47.8974C23.5439 47.2557 23.6872 46.625 23.9101 46.022C24.1968 45.247 24.9847 44.7782 24.8611 44.2478C24.7375 43.7174 18.3976 44.0729 14.7823 38.8934C12.171 35.1523 12.0761 30.7241 13.1024 27.4273C13.7907 25.2157 14.9391 23.6561 15.7208 22.7548C15.2325 21.6864 14.9715 20.5243 14.9551 19.3452C14.9395 18.0895 15.2012 16.8463 15.7208 15.7083C18.5666 15.7945 21.3176 16.7732 23.6009 18.5118C25.617 17.8193 27.7244 17.4445 29.8507 17.4004C32.2326 17.3525 34.6051 17.7197 36.8665 18.4863C38.0081 17.4423 39.3323 16.6282 40.7696 16.0869C41.8655 15.6759 43.0137 15.4292 44.1786 15.3544C44.7742 16.5076 45.0958 17.7879 45.1175 19.0918C45.1356 20.3097 44.891 21.5166 44.4013 22.6269C45.2511 23.6752 46.5931 25.6197 47.218 28.3838C47.4406 29.3684 48.6578 34.7425 45.1441 39.3671C41.466 44.2084 35.344 43.4659 35.0677 44.1344C34.7914 44.803 36.2428 46.0429 36.9251 48.6433C37.6075 51.2436 37.3185 56.2137 37.3185 56.2137"/>
</mask>
<path d="M30.5848 59.0016C30.0334 59.033 29.6118 59.5054 29.6432 60.0568C29.6746 60.6082 30.147 61.0298 30.6984 60.9984L30.5848 59.0016ZM59.4727 24.692L58.4873 24.8626L58.4873 24.8626L59.4727 24.692ZM26.0528 0.271326L26.1897 1.2619L26.1898 1.2619L26.0528 0.271326ZM0.174504 33.3351L-0.819475 33.4448L-0.818804 33.4505L0.174504 33.3351ZM17.8673 57.6824L18.2551 56.7607L18.2551 56.7607L17.8673 57.6824ZM23.132 52.6332H24.132C24.132 52.3409 24.0041 52.0632 23.7819 51.8732C23.5597 51.6832 23.2655 51.6 22.9768 51.6453L23.132 52.6332ZM15.7581 50.3411L16.5038 49.6748L16.5038 49.6748L15.7581 50.3411ZM17.0734 46.6281L17.8584 46.0085L17.8566 46.0064L17.0734 46.6281ZM23.4839 47.8974L24.0178 48.7429C24.2801 48.5773 24.4506 48.2994 24.4795 47.9905L23.4839 47.8974ZM23.9101 46.022L22.9722 45.6751L22.9722 45.6753L23.9101 46.022ZM14.7823 38.8934L13.9623 39.4658L13.9623 39.4658L14.7823 38.8934ZM13.1024 27.4273L14.0572 27.7245L14.0572 27.7244L13.1024 27.4273ZM15.7208 22.7548L16.4763 23.41C16.7329 23.114 16.7932 22.6954 16.6303 22.3391L15.7208 22.7548ZM14.9551 19.3452L13.9552 19.3577L13.9552 19.3591L14.9551 19.3452ZM15.7208 15.7083L15.7511 14.7088C15.3487 14.6966 14.9783 14.9268 14.8111 15.293L15.7208 15.7083ZM23.6009 18.5118L22.9952 19.3074C23.2608 19.5097 23.61 19.566 23.9258 19.4575L23.6009 18.5118ZM29.8507 17.4004L29.8306 16.4006L29.83 16.4006L29.8507 17.4004ZM36.8665 18.4863L36.5454 19.4334C36.8907 19.5504 37.2723 19.4703 37.5413 19.2242L36.8665 18.4863ZM40.7696 16.0869L40.4185 15.1506L40.4172 15.151L40.7696 16.0869ZM44.1786 15.3544L45.0672 14.8955C44.8849 14.5425 44.511 14.3309 44.1145 14.3564L44.1786 15.3544ZM45.1175 19.0918L46.1173 19.077L46.1173 19.0752L45.1175 19.0918ZM44.4013 22.6269L43.4863 22.2233C43.335 22.5664 43.3883 22.9653 43.6245 23.2566L44.4013 22.6269ZM47.218 28.3838L46.2426 28.6043L46.2426 28.6043L47.218 28.3838ZM45.1441 39.3671L44.3479 38.7621L44.3479 38.7622L45.1441 39.3671ZM36.3202 56.1557C36.2881 56.707 36.7091 57.18 37.2605 57.212C37.8118 57.2441 38.2848 56.8231 38.3168 56.2718L36.3202 56.1557ZM30.6984 60.9984C40.4175 60.4454 48.7382 56.3927 54.1955 49.9098C59.6594 43.4192 62.196 34.5591 60.458 24.5214L58.4873 24.8626C60.1311 34.3559 57.7257 42.6107 52.6655 48.6218C47.5987 54.6407 39.813 58.4766 30.5848 59.0016L30.6984 60.9984ZM60.458 24.5214C57.6107 8.07618 41.8574 -2.92385 25.9158 -0.719247L26.1898 1.2619C41.0875 -0.79834 55.828 9.50341 58.4873 24.8626L60.458 24.5214ZM25.9158 -0.719248C9.76252 1.51439 -2.65795 16.7903 -0.819458 33.4448L1.16847 33.2253C-0.547904 17.6771 11.0797 3.35129 26.1897 1.2619L25.9158 -0.719248ZM-0.818804 33.4505C0.919358 48.3997 9.95654 55.4392 17.4795 58.6042L18.2551 56.7607C11.2189 53.8005 2.8025 47.2787 1.16781 33.2196L-0.818804 33.4505ZM17.4794 58.6041C18.3021 58.9503 19.3323 59.4045 20.235 59.7421C20.6887 59.9117 21.1409 60.0638 21.5451 60.1624C21.9053 60.2503 22.3884 60.3392 22.8233 60.244L22.3955 58.2903C22.4455 58.2793 22.3553 58.3014 22.0191 58.2194C21.7268 58.1481 21.3593 58.0272 20.9355 57.8687C20.0833 57.5501 19.1272 57.1276 18.2551 56.7607L17.4794 58.6041ZM22.8233 60.244C23.3843 60.1212 23.6495 59.6713 23.7545 59.4523C23.8777 59.1953 23.9506 58.902 23.9994 58.635C24.099 58.0897 24.1414 57.3989 24.1589 56.7007C24.1935 55.3226 24.132 53.6129 24.132 52.6332H22.132C22.132 53.7565 22.1939 55.2796 22.1596 56.6506C22.1426 57.3269 22.1025 57.8897 22.032 58.2755C21.9957 58.4741 21.9616 58.5657 21.9511 58.5876C21.9222 58.6478 22.0268 58.371 22.3955 58.2903L22.8233 60.244ZM22.9768 51.6453C20.7571 51.9941 19.3747 51.7072 18.4675 51.2836C17.5491 50.8546 17.0114 50.2429 16.5038 49.6748L15.0124 51.0073C15.5127 51.5673 16.2905 52.4742 17.6213 53.0957C18.9634 53.7224 20.7639 54.0176 23.2872 53.6211L22.9768 51.6453ZM16.5038 49.6748C15.4421 48.4865 14.8421 47.301 13.631 45.2966L11.9192 46.3309C13.0429 48.1907 13.7875 49.6365 15.0125 51.0074L16.5038 49.6748ZM13.631 45.2966C12.8685 44.0346 11.7813 43.5644 11.0261 43.2764C10.6088 43.1173 10.409 43.0508 10.2549 42.9607C10.1562 42.9029 10.235 42.9274 10.2541 43.0235L8.29252 43.4136C8.42279 44.0685 8.84897 44.4554 9.24527 44.6871C9.58624 44.8865 10.0291 45.0367 10.3135 45.1452C10.9618 45.3924 11.5144 45.6609 11.9192 46.3309L13.631 45.2966ZM10.2541 43.0235C10.3063 43.286 10.1807 43.5325 10.0321 43.6515C9.94368 43.7223 9.91585 43.6965 10.0622 43.6765C10.332 43.6396 10.8483 43.6705 11.547 43.8785C12.9169 44.2864 14.7459 45.3046 16.2902 47.2499L17.8566 46.0064C16.0474 43.7274 13.8652 42.482 12.1178 41.9617C11.2579 41.7056 10.4391 41.6063 9.79116 41.695C9.47869 41.7377 9.09638 41.8386 8.78204 42.0903C8.40761 42.3901 8.18472 42.8717 8.29252 43.4136L10.2541 43.0235ZM16.2885 47.2477C17.6547 48.9785 19.1675 49.6892 20.6287 49.7449C22.0377 49.7985 23.2368 49.2361 24.0178 48.7429L22.9499 47.0519C22.3385 47.4379 21.546 47.7783 20.7048 47.7463C19.9156 47.7163 18.9194 47.3528 17.8584 46.0085L16.2885 47.2477ZM24.4795 47.9905C24.5314 47.4353 24.6555 46.8899 24.8481 46.3687L22.9722 45.6753C22.719 46.3601 22.5563 47.0761 22.4882 47.8043L24.4795 47.9905ZM24.848 46.3689C24.9243 46.1628 25.0637 45.9991 25.3298 45.6559C25.4394 45.5145 25.5983 45.3045 25.7112 45.0626C25.833 44.8016 25.9323 44.4384 25.835 44.0208L23.8872 44.4748C23.8517 44.3224 23.8989 44.2167 23.8988 44.2169C23.8897 44.2363 23.8569 44.2914 23.7491 44.4305C23.5805 44.648 23.1827 45.1062 22.9722 45.6751L24.848 46.3689ZM25.835 44.0208C25.7199 43.5271 25.3207 43.3172 25.2242 43.2677C25.0732 43.1901 24.9142 43.1424 24.798 43.1115C24.5582 43.0477 24.2395 42.9901 23.9224 42.9321C23.2543 42.8099 22.3879 42.6514 21.4223 42.3574C19.4939 41.7703 17.2365 40.6623 15.6023 38.321L13.9623 39.4658C15.9434 42.304 18.6635 43.6081 20.8398 44.2707C21.9266 44.6015 22.8943 44.7773 23.5627 44.8995C23.9138 44.9637 24.139 45.0058 24.2837 45.0443C24.3597 45.0645 24.3531 45.0686 24.3103 45.0467C24.2872 45.0348 24.2183 44.9977 24.1405 44.9233C24.0598 44.8461 23.9395 44.6991 23.8872 44.4748L25.835 44.0208ZM15.6023 38.321C13.2025 34.883 13.1032 30.7892 14.0572 27.7245L12.1476 27.13C11.049 30.659 11.1394 35.4216 13.9623 39.4658L15.6023 38.321ZM14.0572 27.7244C14.6913 25.6871 15.7506 24.2467 16.4763 23.41L14.9653 22.0996C14.1276 23.0655 12.8901 24.7444 12.1476 27.1301L14.0572 27.7244ZM16.6303 22.3391C16.1999 21.3975 15.9695 20.3722 15.955 19.3313L13.9552 19.3591C13.9735 20.6764 14.2651 21.9754 14.8113 23.1705L16.6303 22.3391ZM15.955 19.3328C15.9412 18.2239 16.1724 17.1269 16.6304 16.1237L14.8111 15.293C14.23 16.5657 13.9377 17.955 13.9552 19.3577L15.955 19.3328ZM15.6905 16.7079C18.3261 16.7877 20.8763 17.694 22.9952 19.3074L24.2067 17.7161C21.7589 15.8523 18.807 14.8013 15.7511 14.7088L15.6905 16.7079ZM23.9258 19.4575C25.8441 18.7986 27.8489 18.4422 29.8715 18.4002L29.83 16.4006C27.5998 16.4469 25.3899 16.8399 23.2761 17.566L23.9258 19.4575ZM29.8708 18.4002C32.1366 18.3547 34.3936 18.7039 36.5454 19.4334L37.1875 17.5392C34.8166 16.7355 32.3287 16.3504 29.8306 16.4006L29.8708 18.4002ZM37.5413 19.2242C38.5897 18.2654 39.8048 17.5188 41.1221 17.0227L40.4172 15.151C38.8599 15.7375 37.4264 16.6191 36.1916 17.7484L37.5413 19.2242ZM41.1208 17.0232C42.1247 16.6467 43.1763 16.4208 44.2428 16.3523L44.1145 14.3564C42.8511 14.4376 41.6062 14.7051 40.4185 15.1506L41.1208 17.0232ZM43.2901 15.8132C43.8146 16.8289 44.0985 17.9578 44.1176 19.1085L46.1173 19.0752C46.0931 17.6181 45.7337 16.1863 45.0672 14.8955L43.2901 15.8132ZM44.1176 19.1067C44.1335 20.1811 43.9178 21.2453 43.4863 22.2233L45.3162 23.0305C45.8643 21.788 46.1376 20.4382 46.1173 19.077L44.1176 19.1067ZM43.6245 23.2566C44.4184 24.236 45.6635 26.0426 46.2426 28.6043L48.1934 28.1632C47.5227 25.1969 46.0839 23.1144 45.1781 21.9971L43.6245 23.2566ZM46.2426 28.6043C46.4613 29.5714 47.5647 34.5283 44.3479 38.7621L45.9404 39.9721C49.7509 34.9568 48.42 29.1655 48.1934 28.1632L46.2426 28.6043ZM44.3479 38.7622C42.698 40.9338 40.4918 41.8723 38.5891 42.345C37.6329 42.5826 36.7794 42.6969 36.0938 42.7993C35.7689 42.8478 35.4372 42.8997 35.1736 42.9694C35.0426 43.004 34.8757 43.0561 34.7156 43.1415C34.5715 43.2183 34.2906 43.3965 34.1435 43.7525L35.9919 44.5164C35.8793 44.7888 35.6786 44.8945 35.6564 44.9064C35.6181 44.9268 35.6146 44.9215 35.6847 44.903C35.8231 44.8664 36.0437 44.8289 36.3891 44.7773C37.044 44.6796 38.0027 44.5516 39.0713 44.286C41.2182 43.7526 43.9121 42.6417 45.9404 39.9721L44.3479 38.7622ZM34.1435 43.7525C33.9096 44.3186 34.1005 44.8568 34.2267 45.1503C34.3639 45.4694 34.5812 45.8349 34.7702 46.1633C35.1737 46.8643 35.6517 47.7302 35.9579 48.8971L37.8924 48.3894C37.5162 46.9559 36.9273 45.9017 36.5036 45.1656C36.279 44.7754 36.1426 44.543 36.0641 44.3603C35.9745 44.152 36.0877 44.2846 35.9919 44.5164L34.1435 43.7525ZM35.9579 48.8971C36.2645 50.0653 36.3647 51.8469 36.3778 53.4119C36.3842 54.1789 36.3697 54.8674 36.3535 55.3641C36.3455 55.6122 36.3371 55.8117 36.3307 55.9485C36.3275 56.0169 36.3248 56.0695 36.323 56.1047C36.3221 56.1222 36.3213 56.1354 36.3209 56.144C36.3206 56.1483 36.3205 56.1514 36.3203 56.1534C36.3203 56.1543 36.3202 56.155 36.3202 56.1554C36.3202 56.1556 36.3202 56.1557 36.3202 56.1558C36.3202 56.1558 36.3202 56.1558 36.3202 56.1558C36.3202 56.1557 36.3202 56.1557 37.3185 56.2137C38.3168 56.2718 38.3168 56.2717 38.3168 56.2715C38.3169 56.2715 38.3169 56.2713 38.3169 56.2712C38.3169 56.271 38.3169 56.2706 38.3169 56.2702C38.317 56.2694 38.317 56.2683 38.3171 56.2668C38.3173 56.264 38.3175 56.26 38.3178 56.2548C38.3184 56.2444 38.3192 56.2293 38.3202 56.2098C38.3223 56.1709 38.3251 56.1142 38.3285 56.0416C38.3353 55.8965 38.3441 55.6874 38.3525 55.4289C38.3692 54.9125 38.3844 54.1959 38.3777 53.3953C38.3646 51.8252 38.2682 49.8216 37.8924 48.3894L35.9579 48.8971Z" fill="black" mask="url(#path-2-inside-1_756_2526)"/>
</g>
<defs>
<clipPath id="clip0_756_2526">
<rect width="60" height="60" fill="white"/>
</clipPath>
</defs>
</svg>
