<svg width="82" height="82" viewBox="0 0 82 82" fill="none" xmlns="http://www.w3.org/2000/svg">
<path d="M41 81C63.0914 81 81 63.0914 81 41C81 18.9086 63.0914 1 41 1C18.9086 1 1 18.9086 1 41C1 63.0914 18.9086 81 41 81Z" stroke="white" stroke-width="2" stroke-linecap="round" stroke-linejoin="round"/>
<path d="M44.1388 36.2345L36.4101 37.2031L36.1333 38.4856L37.6521 38.7657C38.6443 39.002 38.8401 39.3598 38.6241 40.3486L36.1333 52.0531C35.4786 55.0805 36.4877 56.5047 38.8603 56.5047C40.6997 56.5047 42.8361 55.6543 43.8047 54.4865L44.1017 53.0825C43.4267 53.6765 42.4412 53.9128 41.7865 53.9128C40.8583 53.9128 40.5208 53.2614 40.7605 52.1139L44.1388 36.2345ZM44.3751 29.1875C44.3751 30.0826 44.0195 30.941 43.3866 31.574C42.7536 32.2069 41.8952 32.5625 41.0001 32.5625C40.105 32.5625 39.2465 32.2069 38.6136 31.574C37.9807 30.941 37.6251 30.0826 37.6251 29.1875C37.6251 28.2924 37.9807 27.4339 38.6136 26.801C39.2465 26.1681 40.105 25.8125 41.0001 25.8125C41.8952 25.8125 42.7536 26.1681 43.3866 26.801C44.0195 27.4339 44.3751 28.2924 44.3751 29.1875Z" fill="white"/>
</svg>
