<svg width="82" height="82" viewBox="0 0 82 82" fill="none" xmlns="http://www.w3.org/2000/svg">
<path d="M41 81C63.0914 81 81 63.0914 81 41C81 18.9086 63.0914 1 41 1C18.9086 1 1 18.9086 1 41C1 63.0914 18.9086 81 41 81Z" stroke="black" stroke-width="2" stroke-linecap="round" stroke-linejoin="round"/>
<path d="M56.125 26.2188H25.875C25.2368 26.2188 24.6248 26.4723 24.1735 26.9235C23.7223 27.3748 23.4688 27.9868 23.4688 28.625V53.375C23.4688 54.0132 23.7223 54.6252 24.1735 55.0765C24.6248 55.5277 25.2368 55.7812 25.875 55.7812H56.125C56.7632 55.7812 57.3752 55.5277 57.8265 55.0765C58.2777 54.6252 58.5312 54.0132 58.5312 53.375V28.625C58.5312 27.9868 58.2777 27.3748 57.8265 26.9235C57.3752 26.4723 56.7632 26.2188 56.125 26.2188ZM25.875 28.2812H56.125C56.2162 28.2812 56.3036 28.3175 56.3681 28.3819C56.4325 28.4464 56.4688 28.5338 56.4688 28.625V35.8438H25.5312V28.625C25.5312 28.5338 25.5675 28.4464 25.6319 28.3819C25.6964 28.3175 25.7838 28.2812 25.875 28.2812ZM25.5312 53.375V37.9062H35.8438V53.7188H25.875C25.7838 53.7188 25.6964 53.6825 25.6319 53.6181C25.5675 53.5536 25.5312 53.4662 25.5312 53.375ZM56.125 53.7188H37.9062V37.9062H56.4688V53.375C56.4688 53.4662 56.4325 53.5536 56.3681 53.6181C56.3036 53.6825 56.2162 53.7188 56.125 53.7188Z" fill="black"/>
</svg>
