<svg width="60" height="60" viewBox="0 0 60 60" fill="none" xmlns="http://www.w3.org/2000/svg">
<mask id="path-1-inside-1_756_2528" fill="white">
<path d="M22.0611 40.3383C21.9563 34.3772 22.3459 22.9422 21.7859 22.3787C21.2259 21.8152 16.8222 20.1351 15.996 18.8472C15.1696 17.5594 15.4104 14.9785 18.3623 14.9751C21.3142 14.9717 21.6875 17.4291 20.919 19.0273C20.1503 20.6256 15.7986 21.8056 15.3024 22.4552C14.8062 23.1048 14.5951 41.7904 15.3024 42.2489C16.0097 42.7073 24.8904 42.6691 25.676 42.096C26.462 41.5228 24.6935 22.9901 25.676 22.5314C26.6585 22.0726 30.7449 21.9964 31.2559 22.2258C31.7667 22.4552 31.4525 24.404 31.806 24.5949C32.1595 24.786 34.7678 21.4298 38.8789 21.92C41.9248 22.283 44.6554 24.786 45.0875 27.2697C45.5197 29.7535 45.3493 37.052 45.2448 41.943C43.149 42.0195 41.0533 42.1342 38.9578 42.2106C38.8792 38.0836 39.2723 32.6959 38.722 29.8682C38.1719 27.0404 32.2201 27.0792 32.2778 29.8682C32.3354 32.6571 32.7492 42.2106 31.4918 42.1724"/>
</mask>
<path d="M21.0612 40.3559C21.071 40.9081 21.5265 41.3478 22.0787 41.3381C22.6309 41.3284 23.0706 40.8729 23.0609 40.3207L21.0612 40.3559ZM15.996 18.8472L16.8377 18.3073L16.8377 18.3072L15.996 18.8472ZM20.919 19.0273L21.8202 19.4608L21.8202 19.4607L20.919 19.0273ZM25.676 42.096L25.0868 41.288L25.0867 41.2881L25.676 42.096ZM31.2559 22.2258L31.6656 21.3136L31.6654 21.3135L31.2559 22.2258ZM31.806 24.5949L32.2816 23.7152L32.2811 23.7149L31.806 24.5949ZM38.8789 21.92L38.7605 22.9129L38.7606 22.913L38.8789 21.92ZM45.2448 41.943L45.2812 42.9424C45.8107 42.9231 46.2332 42.4941 46.2446 41.9644L45.2448 41.943ZM38.9578 42.2106L37.958 42.2297C37.9631 42.4979 38.0758 42.7528 38.2706 42.9371C38.4655 43.1214 38.7262 43.2198 38.9943 43.21L38.9578 42.2106ZM38.722 29.8682L37.7404 30.0591L37.7404 30.0592L38.722 29.8682ZM31.5222 41.1729C30.9702 41.1561 30.5091 41.59 30.4923 42.142C30.4755 42.6941 30.9094 43.1552 31.4614 43.172L31.5222 41.1729ZM23.0609 40.3207C23.0088 37.3539 23.0798 33.0352 23.0942 29.3383C23.1013 27.5005 23.0944 25.8149 23.0498 24.5491C23.0276 23.919 22.9954 23.3719 22.9478 22.9544C22.9242 22.7481 22.8941 22.5475 22.8524 22.374C22.8316 22.2875 22.8029 22.1861 22.7612 22.0842C22.726 21.9982 22.649 21.8286 22.4952 21.6739L21.0766 23.0836C20.9578 22.964 20.914 22.8509 20.9101 22.8416C20.8998 22.8164 20.9007 22.8119 20.9078 22.8416C20.922 22.9004 20.941 23.0091 20.9606 23.181C20.9993 23.52 21.0294 24.0053 21.051 24.6196C21.0941 25.8427 21.1013 27.494 21.0942 29.3305C21.08 32.9822 21.0086 37.3615 21.0612 40.3559L23.0609 40.3207ZM22.4952 21.6739C22.3229 21.5004 22.088 21.3556 21.9139 21.2541C21.7131 21.1371 21.4716 21.0099 21.2149 20.8792C20.9566 20.7476 20.6672 20.6047 20.3697 20.4572C20.0698 20.3087 19.7584 20.154 19.446 19.9942C18.8168 19.6726 18.2075 19.3426 17.7131 19.0232C17.182 18.68 16.9178 18.432 16.8377 18.3073L15.1543 19.3872C15.4874 19.9064 16.0834 20.3514 16.6278 20.7031C17.209 21.0785 17.8905 21.4452 18.5356 21.775C18.8603 21.941 19.1818 22.1007 19.4817 22.2493C19.784 22.3991 20.0613 22.5361 20.3074 22.6614C20.5552 22.7876 20.7561 22.8942 20.9066 22.9819C21.0838 23.0852 21.1089 23.1162 21.0766 23.0836L22.4952 21.6739ZM16.8377 18.3072C16.5843 17.9124 16.4953 17.2846 16.6895 16.8041C16.8393 16.4334 17.2279 15.9764 18.3635 15.9751L18.3611 13.9751C16.5448 13.9772 15.3371 14.8124 14.8351 16.0549C14.3775 17.1876 14.5813 18.4943 15.1544 19.3873L16.8377 18.3072ZM18.3635 15.9751C19.5219 15.9738 19.9485 16.4214 20.1239 16.8111C20.3424 17.2965 20.3053 17.9961 20.0178 18.594L21.8202 19.4607C22.3012 18.4604 22.4617 17.1322 21.9477 15.9902C21.3906 14.7524 20.1546 13.973 18.3611 13.9751L18.3635 15.9751ZM20.0178 18.5939C19.9475 18.7401 19.7236 18.9896 19.2363 19.3111C18.7763 19.6145 18.1994 19.9071 17.5889 20.1893C17.2866 20.329 16.9849 20.4622 16.6917 20.5914C16.4022 20.719 16.1162 20.8446 15.8608 20.963C15.6081 21.0801 15.361 21.2011 15.1525 21.3222C14.9779 21.4235 14.7002 21.5961 14.5077 21.8482L16.0971 23.0622C16.0286 23.1518 15.9954 23.1454 16.1569 23.0517C16.2843 22.9777 16.4646 22.8875 16.7017 22.7776C16.936 22.669 17.2022 22.552 17.498 22.4217C17.7903 22.2929 18.1074 22.153 18.4281 22.0047C19.0637 21.7109 19.7498 21.3683 20.3375 20.9806C20.8978 20.611 21.5061 20.1137 21.8202 19.4608L20.0178 18.5939ZM14.5077 21.8482C14.3639 22.0364 14.3089 22.2431 14.2924 22.3032C14.2646 22.4045 14.2434 22.513 14.2263 22.6159C14.1918 22.8244 14.1618 23.0869 14.135 23.3834C14.081 23.9807 14.034 24.784 13.9945 25.7151C13.9153 27.581 13.8643 30.0047 13.8511 32.4182C13.8379 34.8307 13.8622 37.2461 13.935 39.0934C13.9712 40.014 14.0202 40.8114 14.0849 41.4023C14.1169 41.694 14.1556 41.9633 14.2057 42.1816C14.2301 42.2884 14.2644 42.4152 14.3156 42.538C14.3459 42.6108 14.463 42.8965 14.7585 43.088L15.8463 41.4097C15.9908 41.5034 16.07 41.6115 16.1022 41.6599C16.1383 41.7141 16.1564 41.7559 16.1619 41.7692C16.1724 41.7944 16.1678 41.7902 16.1551 41.7347C16.1308 41.6286 16.102 41.4488 16.073 41.1844C16.0159 40.6632 15.9691 39.9205 15.9334 39.0147C15.8623 37.2092 15.8379 34.8267 15.8511 32.4292C15.8642 30.0327 15.9148 27.6346 15.9927 25.7999C16.0317 24.8807 16.0771 24.1141 16.1269 23.5634C16.1519 23.2859 16.1767 23.0799 16.1994 22.9431C16.211 22.8733 16.219 22.84 16.2211 22.8324C16.2345 22.7837 16.2098 22.9146 16.0971 23.0622L14.5077 21.8482ZM14.7585 43.088C14.9567 43.2165 15.1779 43.2739 15.2954 43.3018C15.4447 43.3374 15.6132 43.3654 15.7865 43.3886C16.1353 43.4352 16.5723 43.4709 17.0563 43.4975C18.0281 43.5509 19.2516 43.5713 20.4698 43.5592C21.6873 43.5471 22.9183 43.5024 23.9036 43.4229C24.3942 43.3833 24.8418 43.3337 25.2034 43.2714C25.3834 43.2404 25.5599 43.2033 25.7182 43.1571C25.8516 43.1181 26.0707 43.0458 26.2654 42.9038L25.0867 41.2881C25.1831 41.2177 25.2408 41.2129 25.1575 41.2373C25.0989 41.2544 25.0034 41.2764 24.864 41.3004C24.5869 41.3481 24.2062 41.3919 23.7427 41.4294C22.8199 41.5039 21.6391 41.5475 20.4499 41.5593C19.2613 41.5711 18.0829 41.5509 17.1661 41.5005C16.7057 41.4752 16.3268 41.443 16.0515 41.4062C15.9128 41.3877 15.8171 41.3701 15.7583 41.3562C15.6676 41.3346 15.7365 41.3385 15.8463 41.4097L14.7585 43.088ZM26.2652 42.9039C26.5328 42.7088 26.6402 42.443 26.6771 42.3462C26.7273 42.214 26.758 42.0792 26.7786 41.9659C26.8205 41.7356 26.8449 41.4569 26.8601 41.1606C26.8908 40.5603 26.8893 39.7577 26.8692 38.8398C26.8289 36.999 26.7114 34.5981 26.6012 32.2244C26.4905 29.8392 26.3872 27.4813 26.372 25.6928C26.3644 24.7946 26.3795 24.0689 26.4225 23.5655C26.4445 23.3086 26.4707 23.1498 26.4915 23.0682C26.5024 23.0256 26.5022 23.0435 26.4771 23.0912C26.463 23.118 26.3606 23.3153 26.0991 23.4375L25.2529 21.6253C24.93 21.776 24.7716 22.0373 24.7065 22.1612C24.6304 22.306 24.5843 22.4541 24.5539 22.5725C24.4924 22.8131 24.455 23.1001 24.4298 23.395C24.3785 23.9951 24.3643 24.797 24.3721 25.7097C24.3876 27.5431 24.493 29.9402 24.6034 32.3171C24.7142 34.7055 24.8301 37.074 24.8697 38.8836C24.8895 39.7909 24.8895 40.5338 24.8627 41.0585C24.8491 41.3247 24.8299 41.5034 24.8109 41.6077C24.8011 41.6618 24.7969 41.6636 24.8077 41.6352C24.8135 41.6199 24.8304 41.578 24.8643 41.524C24.8964 41.4729 24.965 41.3768 25.0868 41.288L26.2652 42.9039ZM26.0991 23.4375C26.188 23.396 26.485 23.3182 27.0181 23.2497C27.5097 23.1864 28.0978 23.1428 28.6822 23.1198C29.2662 23.0967 29.8292 23.0948 30.2685 23.1115C30.4894 23.12 30.6666 23.1327 30.7938 23.1475C30.9642 23.1674 30.9402 23.1802 30.8465 23.1381L31.6654 21.3135C31.4439 21.2141 31.1804 21.1791 31.0257 21.161C30.8278 21.1379 30.5942 21.1225 30.3448 21.113C29.8435 21.0939 29.2276 21.0967 28.6033 21.1213C27.9795 21.146 27.3298 21.1931 26.7629 21.266C26.2376 21.3336 25.6553 21.4374 25.2529 21.6253L26.0991 23.4375ZM30.8463 23.138C30.6423 23.0465 30.5541 22.9018 30.5326 22.8621C30.5113 22.8229 30.5172 22.818 30.531 22.8805C30.5591 23.0086 30.5763 23.2031 30.5914 23.4793C30.6043 23.715 30.6165 24.0444 30.6514 24.3078C30.6691 24.441 30.6993 24.6172 30.7623 24.7901C30.8139 24.9316 30.9577 25.2733 31.3309 25.4748L32.2811 23.7149C32.431 23.7959 32.5211 23.9007 32.5684 23.9687C32.6147 24.0354 32.6352 24.0883 32.6414 24.1053C32.6519 24.1341 32.6447 24.125 32.6341 24.0451C32.6125 23.8822 32.6051 23.6743 32.5885 23.3702C32.5741 23.1068 32.552 22.759 32.4844 22.4513C32.4502 22.2959 32.3941 22.0996 32.2909 21.9091C32.1874 21.7182 31.9972 21.4625 31.6656 21.3136L30.8463 23.138ZM31.3304 25.4745C31.7387 25.6953 32.1219 25.5726 32.2316 25.5338C32.3801 25.4814 32.5047 25.4064 32.5823 25.3567C32.7432 25.2536 32.9303 25.1075 33.0979 24.9766C33.4612 24.6927 33.9088 24.3387 34.4621 23.9941C35.5656 23.3066 37.0145 22.7048 38.7605 22.9129L38.9973 20.927C36.6322 20.645 34.7214 21.4762 33.4046 22.2965C32.7477 22.7057 32.2201 23.1243 31.8665 23.4006C31.6755 23.5498 31.5688 23.6308 31.5033 23.6727C31.4677 23.6955 31.4961 23.6725 31.5655 23.648C31.5961 23.6372 31.9175 23.5183 32.2816 23.7152L31.3304 25.4745ZM38.7606 22.913C40.0568 23.0674 41.3171 23.6844 42.3034 24.5509C43.2972 25.4238 43.935 26.4795 44.1023 27.4411L46.0727 27.0983C45.8079 25.5763 44.8644 24.1385 43.6234 23.0483C42.3749 21.9516 40.747 21.1356 38.9973 20.927L38.7606 22.913ZM44.1023 27.4411C44.3007 28.5811 44.3691 30.9344 44.3674 33.7031C44.3658 36.437 44.2974 39.4729 44.245 41.9217L46.2446 41.9644C46.2968 39.5222 46.3658 36.4633 46.3674 33.7043C46.369 30.98 46.3065 28.4421 46.0727 27.0983L44.1023 27.4411ZM45.2083 40.9437C44.1551 40.9821 43.1027 41.0301 42.0556 41.0779C41.007 41.1257 39.9638 41.1733 38.9214 41.2113L38.9943 43.21C40.0473 43.1716 41.0997 43.1236 42.1468 43.0758C43.1953 43.028 44.2387 42.9804 45.2812 42.9424L45.2083 40.9437ZM39.9576 42.1916C39.9187 40.1448 39.9968 37.8148 40.0168 35.5611C40.0363 33.3583 40.001 31.2053 39.7035 29.6771L37.7404 30.0592C37.9933 31.3588 38.0366 33.3135 38.0168 35.5433C37.9975 37.7221 37.9184 40.1495 37.958 42.2297L39.9576 42.1916ZM39.7036 29.6772C39.495 28.6053 38.7774 27.86 37.9584 27.4076C37.1484 26.9602 36.1805 26.759 35.2688 26.7619C34.3627 26.7647 33.4089 26.9699 32.6501 27.4477C31.8604 27.9449 31.2548 28.7694 31.278 29.8888L33.2775 29.8475C33.2719 29.5724 33.3886 29.3462 33.7158 29.1401C34.074 28.9145 34.6317 28.7639 35.2751 28.7619C35.9129 28.7599 36.5325 28.9049 36.9914 29.1583C37.4412 29.4068 37.6738 29.7172 37.7404 30.0591L39.7036 29.6772ZM31.278 29.8888C31.3073 31.3098 31.4242 34.3564 31.3781 37.0635C31.355 38.4209 31.2912 39.6456 31.1638 40.5129C31.0986 40.9568 31.0259 41.2396 30.965 41.3865C30.9337 41.4623 30.9318 41.4361 30.9882 41.3775C31.0599 41.3031 31.2445 41.1644 31.5222 41.1729L31.4614 43.172C31.8964 43.1852 32.2251 42.9763 32.4287 42.7649C32.6173 42.5691 32.7353 42.3389 32.8129 42.1517C32.9699 41.7725 33.0706 41.2935 33.1426 40.8035C33.2895 39.8031 33.3544 38.4723 33.3778 37.0975C33.4247 34.3402 33.3058 31.2155 33.2775 29.8475L31.278 29.8888Z" fill="black" mask="url(#path-1-inside-1_756_2528)"/>
<mask id="path-3-inside-2_756_2528" fill="white">
<path d="M1.00982 22.3103C-3.43239 39.0159 7.27028 55.9272 23.522 59.3681C39.3897 62.7276 55.1871 52.3082 59.0866 37.2212C63.0399 21.9266 53.815 5.38829 38.1043 1.18823C13.5086 -5.23504 2.506 16.4256 2.50483 17.5139"/>
</mask>
<path d="M1.97624 22.5673C2.11817 22.0335 1.80054 21.4858 1.26681 21.3439C0.733068 21.2019 0.185334 21.5196 0.0434077 22.0533L1.97624 22.5673ZM23.522 59.3681L23.7292 58.3897L23.7291 58.3897L23.522 59.3681ZM59.0866 37.2212L58.1184 36.9709L58.1184 36.9709L59.0866 37.2212ZM38.1043 1.18823L38.3626 0.222138L38.357 0.220677L38.1043 1.18823ZM1.50483 17.5128C1.50424 18.0651 1.95148 18.5133 2.50376 18.5139C3.05605 18.5145 3.50424 18.0672 3.50483 17.5149L1.50483 17.5128ZM0.0434077 22.0533C-4.54619 39.3132 6.50423 56.7872 23.3149 60.3464L23.7291 58.3897C8.03633 55.0672 -2.3186 38.7187 1.97624 22.5673L0.0434077 22.0533ZM23.3149 60.3464C39.7248 63.8208 56.0263 53.0577 60.0547 37.4714L58.1184 36.9709C54.348 51.5587 39.0545 61.6345 23.7292 58.3897L23.3149 60.3464ZM60.0547 37.4714C64.1422 21.6576 54.616 4.56729 38.3626 0.222154L37.8461 2.1543C53.0141 6.20928 61.9375 22.1955 58.1184 36.9709L60.0547 37.4714ZM38.357 0.220677C25.7012 -3.08444 16.48 0.843804 10.4498 5.75911C7.44789 8.20603 5.24092 10.8918 3.78191 13.0385C3.0521 14.1123 2.50452 15.0584 2.1353 15.7819C1.95125 16.1426 1.80706 16.4566 1.706 16.7096C1.65581 16.8352 1.61179 16.9568 1.57867 17.0682C1.55397 17.1514 1.50503 17.324 1.50483 17.5128L3.50483 17.5149C3.5047 17.6357 3.47733 17.7002 3.49583 17.6379C3.50592 17.6039 3.52675 17.5429 3.56321 17.4517C3.63546 17.2709 3.7518 17.0142 3.91674 16.691C4.24553 16.0468 4.74988 15.1723 5.43603 14.1627C6.80896 12.1427 8.89009 9.61072 11.7134 7.30935C17.3338 2.72808 25.9118 -0.962372 37.8516 2.15578L38.357 0.220677Z" fill="black" mask="url(#path-3-inside-2_756_2528)"/>
</svg>
