<svg width="82" height="82" viewBox="0 0 82 82" fill="none" xmlns="http://www.w3.org/2000/svg">
<path d="M41 81C63.0914 81 81 63.0914 81 41C81 18.9086 63.0914 1 41 1C18.9086 1 1 18.9086 1 41C1 63.0914 18.9086 81 41 81Z" stroke="black" stroke-width="2" stroke-linecap="round" stroke-linejoin="round"/>
<path d="M30.2326 24.5534C30.2411 25.6402 29.8216 26.6866 29.0646 27.4665C28.3077 28.2463 27.2743 28.6969 26.1877 28.7208C25.1035 28.6815 24.0758 28.227 23.3172 27.4514C22.5585 26.6757 22.1269 25.6383 22.1115 24.5534C22.1583 23.4962 22.6056 22.4963 23.3627 21.7568C24.1197 21.0173 25.1297 20.5935 26.1877 20.5714C27.2427 20.5939 28.2491 21.0188 29.001 21.7591C29.753 22.4993 30.1935 23.499 30.2326 24.5534ZM22.5483 36.1254C22.5483 33.7306 24.0726 34.1046 26.1877 34.1046C28.3029 34.1046 29.7957 33.7306 29.7957 36.1254V59.458C29.7957 61.8843 28.2714 61.3877 26.1877 61.3877C24.104 61.3877 22.5483 61.8843 22.5483 59.458V36.1254ZM36.0814 36.1286C36.0814 34.7897 36.578 34.29 37.3543 34.136C38.1337 33.9788 40.8083 34.136 41.7417 34.136C42.6752 34.136 43.0492 35.6603 43.0177 36.8106C43.816 35.7393 44.8758 34.8907 46.0957 34.3459C47.3156 33.8012 48.6549 33.5785 49.9855 33.6991C51.2921 33.6193 52.6009 33.8153 53.8269 34.2742C55.0528 34.7332 56.1686 35.4449 57.1016 36.3631C58.0346 37.2813 58.7641 38.3855 59.2426 39.604C59.7211 40.8225 59.938 42.128 59.8792 43.4357V59.3637C59.8792 61.79 58.3863 61.2934 56.268 61.2934C54.1529 61.2934 52.66 61.79 52.66 59.3637V46.9211C52.7148 46.2808 52.6312 45.6363 52.4148 45.0312C52.1984 44.4261 51.8543 43.8746 51.4059 43.4143C50.9575 42.954 50.4152 42.5955 49.816 42.3633C49.2168 42.1311 48.5747 42.0306 47.9332 42.0686C47.2941 42.0517 46.6588 42.1709 46.0694 42.4183C45.4799 42.6656 44.9498 43.0354 44.5141 43.5032C44.0784 43.971 43.7472 44.526 43.5423 45.1315C43.3374 45.737 43.2636 46.3792 43.3257 47.0154V59.458C43.3257 61.8843 41.8015 61.3877 39.6863 61.3877C37.5712 61.3877 36.0783 61.8843 36.0783 59.458V36.1254L36.0814 36.1286Z" stroke="black" stroke-width="2" stroke-linecap="round" stroke-linejoin="round"/>
</svg>
