<svg width="61" height="62" viewBox="0 0 61 62" fill="none" xmlns="http://www.w3.org/2000/svg">
<path fill-rule="evenodd" clip-rule="evenodd" d="M29.5244 0.517585C45.3594 -0.0321605 59.883 12.3708 60.9397 28.836C62.0216 45.6955 48.4032 61.0126 30.8401 61.4998C30.5641 61.5075 30.3341 61.2899 30.3264 61.0139C30.3188 60.7378 30.5363 60.5078 30.8124 60.5002C47.8081 60.0287 60.9875 45.1952 59.9418 28.9001C58.9209 12.9943 44.8736 0.98531 29.5591 1.51698L29.5442 1.08859L29.5591 1.51698C14.0358 2.05573 0.818662 15.3868 1.00188 31.3823C1.21882 43.9127 7.18117 51.2333 13.2099 55.3999C16.2319 57.4885 19.2746 58.7863 21.6249 59.5421C22.7998 59.9199 23.7974 60.161 24.5278 60.2977C24.8936 60.3661 25.1875 60.4075 25.4002 60.4273C25.507 60.4373 25.5875 60.4412 25.643 60.4413C25.6695 60.4413 25.685 60.4404 25.6918 60.4399C25.9484 60.3795 26.2105 60.5297 26.2857 60.7857C26.3636 61.0507 26.2119 61.3286 25.947 61.4064C25.8403 61.4378 25.7233 61.4413 25.6418 61.4413C25.5458 61.4411 25.4329 61.4347 25.3076 61.423C25.056 61.3996 24.7304 61.353 24.3438 61.2806C23.5694 61.1357 22.5309 60.8839 21.3187 60.4941C18.8949 59.7146 15.7595 58.3776 12.6414 56.2226C6.39028 51.9023 0.224925 44.3007 0.00200899 31.3982L0.00196747 31.3953C-0.188453 14.8441 13.4697 1.07478 29.5244 0.517585Z" fill="black"/>
<rect x="15.375" y="21.375" width="30.25" height="0.75" rx="0.375" fill="#D9D9D9" stroke="black" stroke-width="0.75" stroke-linecap="round" stroke-linejoin="round"/>
<rect x="15" y="30.5" width="31" height="1.5" rx="0.75" fill="black"/>
<rect x="15" y="40" width="31" height="1.5" rx="0.75" fill="black"/>
</svg>
