<svg width="82" height="82" viewBox="0 0 82 82" fill="none" xmlns="http://www.w3.org/2000/svg">
<path d="M41 81C63.0914 81 81 63.0914 81 41C81 18.9086 63.0914 1 41 1C18.9086 1 1 18.9086 1 41C1 63.0914 18.9086 81 41 81Z" stroke="black" stroke-width="2" stroke-linecap="round" stroke-linejoin="round"/>
<path d="M29.0572 22.1428C28.057 22.1428 27.0977 22.5402 26.3904 23.2474C25.6831 23.9547 25.2858 24.914 25.2858 25.9143V56.0857C25.2858 57.0859 25.6831 58.0452 26.3904 58.7525C27.0977 59.4598 28.057 59.8571 29.0572 59.8571H52.9429C53.9432 59.8571 54.9024 59.4598 55.6097 58.7525C56.317 58.0452 56.7143 57.0859 56.7143 56.0857V37.194C56.7143 36.0484 56.2586 34.95 55.4493 34.1391L44.5578 23.2475C43.8505 22.5402 42.8913 22.1429 41.8911 22.1428H29.0572ZM27.6429 25.9143C27.6429 25.5392 27.7919 25.1794 28.0571 24.9142C28.3224 24.649 28.6821 24.5 29.0572 24.5H41.0001V34.7143C41.0001 35.5478 41.3312 36.3472 41.9206 36.9366C42.51 37.526 43.3094 37.8571 44.1429 37.8571H54.3572V56.0857C54.3572 56.4608 54.2082 56.8205 53.943 57.0857C53.6777 57.351 53.318 57.5 52.9429 57.5H29.0572C28.6821 57.5 28.3224 57.351 28.0571 57.0857C27.7919 56.8205 27.6429 56.4608 27.6429 56.0857V25.9143ZM53.4772 35.5H44.1429C43.9345 35.5 43.7347 35.4172 43.5873 35.2698C43.44 35.1225 43.3572 34.9226 43.3572 34.7143V25.38L53.4772 35.5Z" fill="black"/>
</svg>
