<svg width="62" height="62" viewBox="0 0 62 62" fill="none" xmlns="http://www.w3.org/2000/svg">
<path d="M31.3262 61C48.6056 60.5207 62.0046 45.4454 60.9408 28.8681C59.9019 12.6825 45.6165 0.476577 30.0417 1.01729C14.2525 1.56527 0.814706 15.1159 1.00193 31.3895C1.44135 56.8232 25.2578 61.2347 26.306 60.9267" stroke="black" stroke-miterlimit="10" stroke-linecap="round" stroke-linejoin="round"/>
<g clip-path="url(#clip0_756_2555)">
<mask id="path-4-inside-1_756_2555" fill="white">
<path d="M43.3294 48H18.6706C17.7518 48 17 47.2617 17 46.3594V14.6406C17 13.7383 17.7518 13 18.6706 13H43.3294C44.2482 13 45 13.7383 45 14.6406V46.3594C45 47.2617 44.2482 48 43.3294 48ZM18.6706 13.5359C18.0525 13.5359 17.5513 14.0281 17.5513 14.6352V46.3539C17.5513 46.9609 18.0525 47.4531 18.6706 47.4531H43.3294C43.9475 47.4531 44.4487 46.9609 44.4487 46.3539V14.6406C44.4487 14.0336 43.9475 13.5414 43.3294 13.5414H18.6706V13.5359Z"/>
</mask>
<path d="M43.3294 48H18.6706C17.7518 48 17 47.2617 17 46.3594V14.6406C17 13.7383 17.7518 13 18.6706 13H43.3294C44.2482 13 45 13.7383 45 14.6406V46.3594C45 47.2617 44.2482 48 43.3294 48ZM18.6706 13.5359C18.0525 13.5359 17.5513 14.0281 17.5513 14.6352V46.3539C17.5513 46.9609 18.0525 47.4531 18.6706 47.4531H43.3294C43.9475 47.4531 44.4487 46.9609 44.4487 46.3539V14.6406C44.4487 14.0336 43.9475 13.5414 43.3294 13.5414H18.6706V13.5359Z" fill="black"/>
<path d="M18.6706 13.5359H19.6706V12.5359H18.6706V13.5359ZM18.6706 13.5414H17.6706V14.5414H18.6706V13.5414ZM43.3294 47H18.6706V49H43.3294V47ZM18.6706 47C18.2869 47 18 46.6924 18 46.3594H16C16 47.831 17.2167 49 18.6706 49V47ZM18 46.3594V14.6406H16V46.3594H18ZM18 14.6406C18 14.3076 18.2869 14 18.6706 14V12C17.2167 12 16 13.169 16 14.6406H18ZM18.6706 14H43.3294V12H18.6706V14ZM43.3294 14C43.7131 14 44 14.3076 44 14.6406H46C46 13.169 44.7833 12 43.3294 12V14ZM44 14.6406V46.3594H46V14.6406H44ZM44 46.3594C44 46.6924 43.7131 47 43.3294 47V49C44.7833 49 46 47.831 46 46.3594H44ZM18.6706 12.5359C17.5174 12.5359 16.5513 13.4588 16.5513 14.6352H18.5513C18.5513 14.5974 18.5876 14.5359 18.6706 14.5359V12.5359ZM16.5513 14.6352V46.3539H18.5513V14.6352H16.5513ZM16.5513 46.3539C16.5513 47.5302 17.5174 48.4531 18.6706 48.4531V46.4531C18.5876 46.4531 18.5513 46.3916 18.5513 46.3539H16.5513ZM18.6706 48.4531H43.3294V46.4531H18.6706V48.4531ZM43.3294 48.4531C44.4826 48.4531 45.4487 47.5302 45.4487 46.3539H43.4487C43.4487 46.3916 43.4124 46.4531 43.3294 46.4531V48.4531ZM45.4487 46.3539V14.6406H43.4487V46.3539H45.4487ZM45.4487 14.6406C45.4487 13.4643 44.4826 12.5414 43.3294 12.5414V14.5414C43.4124 14.5414 43.4487 14.6029 43.4487 14.6406H45.4487ZM43.3294 12.5414H18.6706V14.5414H43.3294V12.5414ZM19.6706 13.5414V13.5359H17.6706V13.5414H19.6706Z" fill="black" mask="url(#path-4-inside-1_756_2555)"/>
<mask id="path-6-inside-2_756_2555" fill="white">
<path d="M29.2514 48C29.101 48 28.9785 47.8797 28.9785 47.732V13.268C28.9785 13.1203 29.101 13 29.2514 13C29.4017 13 29.5242 13.1203 29.5242 13.268V47.732C29.5298 47.8797 29.4073 48 29.2514 48ZM26.5282 39.682H20.1241C19.6897 39.682 19.3389 39.3375 19.3389 38.9109V37.1883C19.3389 36.7617 19.6897 36.4172 20.1241 36.4172H26.5282C26.9626 36.4172 27.3134 36.7617 27.3134 37.1883V38.9109C27.3134 39.3375 26.9626 39.682 26.5282 39.682ZM20.1241 36.9586C19.996 36.9586 19.8846 37.0625 19.8846 37.1938V38.9164C19.8846 39.0422 19.9904 39.1516 20.1241 39.1516H26.5282C26.6563 39.1516 26.7677 39.0477 26.7677 38.9164V37.1938C26.7677 37.068 26.6619 36.9586 26.5282 36.9586H20.1241ZM26.5282 45.2437H20.1241C19.6897 45.2437 19.3389 44.8992 19.3389 44.4727V42.75C19.3389 42.3234 19.6897 41.9789 20.1241 41.9789H26.5282C26.9626 41.9789 27.3134 42.3234 27.3134 42.75V44.4727C27.3134 44.8992 26.9626 45.2437 26.5282 45.2437ZM20.1241 42.5148C19.996 42.5148 19.8846 42.6188 19.8846 42.75V44.4727C19.8846 44.5984 19.9904 44.7078 20.1241 44.7078H26.5282C26.6563 44.7078 26.7677 44.6039 26.7677 44.4727V42.75C26.7677 42.6242 26.6619 42.5148 26.5282 42.5148H20.1241ZM27.5083 24.5828H19.144C18.9936 24.5828 18.8711 24.4625 18.8711 24.3148V15.9258C18.8711 15.7781 18.9936 15.6578 19.144 15.6578H27.5028C27.6531 15.6578 27.7756 15.7781 27.7756 15.9258V24.3148C27.7812 24.4625 27.6587 24.5828 27.5083 24.5828ZM19.4224 24.0414H27.2355V16.1938H19.4224V24.0414ZM34.6643 21.2414C33.2331 21.2414 32.0692 20.0984 32.0692 18.693C32.0692 17.2875 33.2331 16.1445 34.6643 16.1445C35.2991 16.1445 35.9172 16.3742 36.3962 16.8008C36.5075 16.8992 36.5187 17.0688 36.4184 17.1836C36.3182 17.293 36.1456 17.3039 36.0286 17.2055C35.6499 16.8719 35.1654 16.6914 34.6643 16.6914C33.5394 16.6914 32.6205 17.5938 32.6205 18.6984C32.6205 19.8031 33.5394 20.7055 34.6643 20.7055C35.1654 20.7055 35.6499 20.5195 36.0286 20.1914C36.14 20.093 36.3126 20.1039 36.4184 20.2133C36.5187 20.3227 36.5075 20.4922 36.3962 20.5961C35.9172 21.0063 35.3047 21.2414 34.6643 21.2414ZM40.144 21.2414C40.0326 21.2414 39.9268 21.1703 39.8878 21.0664L38.1392 16.5109C38.0835 16.3742 38.1559 16.2156 38.3007 16.1664C38.4399 16.1117 38.6014 16.1828 38.6515 16.325L40.144 20.2078L41.6197 16.325C41.6754 16.1883 41.8313 16.1172 41.9705 16.1664C42.1098 16.2211 42.1822 16.3742 42.132 16.5109L40.4057 21.0664C40.3612 21.1703 40.2721 21.2414 40.144 21.2414ZM26.4001 34.1148H20.2522C19.7565 34.1148 19.3556 33.7211 19.3556 33.2344V30.6859C19.3556 30.5383 19.4781 30.418 19.6285 30.418C19.7788 30.418 19.9013 30.5383 19.9013 30.6859V33.2344C19.9013 33.4203 20.0573 33.5734 20.2466 33.5734H26.4001C26.5895 33.5734 26.7454 33.4203 26.7454 33.2344V30.6859C26.7454 30.5383 26.8679 30.418 27.0183 30.418C27.1686 30.418 27.2911 30.5383 27.2911 30.6859V33.2344C27.2967 33.7156 26.8958 34.1148 26.4001 34.1148Z"/>
</mask>
<path d="M29.2514 48C29.101 48 28.9785 47.8797 28.9785 47.732V13.268C28.9785 13.1203 29.101 13 29.2514 13C29.4017 13 29.5242 13.1203 29.5242 13.268V47.732C29.5298 47.8797 29.4073 48 29.2514 48ZM26.5282 39.682H20.1241C19.6897 39.682 19.3389 39.3375 19.3389 38.9109V37.1883C19.3389 36.7617 19.6897 36.4172 20.1241 36.4172H26.5282C26.9626 36.4172 27.3134 36.7617 27.3134 37.1883V38.9109C27.3134 39.3375 26.9626 39.682 26.5282 39.682ZM20.1241 36.9586C19.996 36.9586 19.8846 37.0625 19.8846 37.1938V38.9164C19.8846 39.0422 19.9904 39.1516 20.1241 39.1516H26.5282C26.6563 39.1516 26.7677 39.0477 26.7677 38.9164V37.1938C26.7677 37.068 26.6619 36.9586 26.5282 36.9586H20.1241ZM26.5282 45.2437H20.1241C19.6897 45.2437 19.3389 44.8992 19.3389 44.4727V42.75C19.3389 42.3234 19.6897 41.9789 20.1241 41.9789H26.5282C26.9626 41.9789 27.3134 42.3234 27.3134 42.75V44.4727C27.3134 44.8992 26.9626 45.2437 26.5282 45.2437ZM20.1241 42.5148C19.996 42.5148 19.8846 42.6188 19.8846 42.75V44.4727C19.8846 44.5984 19.9904 44.7078 20.1241 44.7078H26.5282C26.6563 44.7078 26.7677 44.6039 26.7677 44.4727V42.75C26.7677 42.6242 26.6619 42.5148 26.5282 42.5148H20.1241ZM27.5083 24.5828H19.144C18.9936 24.5828 18.8711 24.4625 18.8711 24.3148V15.9258C18.8711 15.7781 18.9936 15.6578 19.144 15.6578H27.5028C27.6531 15.6578 27.7756 15.7781 27.7756 15.9258V24.3148C27.7812 24.4625 27.6587 24.5828 27.5083 24.5828ZM19.4224 24.0414H27.2355V16.1938H19.4224V24.0414ZM34.6643 21.2414C33.2331 21.2414 32.0692 20.0984 32.0692 18.693C32.0692 17.2875 33.2331 16.1445 34.6643 16.1445C35.2991 16.1445 35.9172 16.3742 36.3962 16.8008C36.5075 16.8992 36.5187 17.0688 36.4184 17.1836C36.3182 17.293 36.1456 17.3039 36.0286 17.2055C35.6499 16.8719 35.1654 16.6914 34.6643 16.6914C33.5394 16.6914 32.6205 17.5938 32.6205 18.6984C32.6205 19.8031 33.5394 20.7055 34.6643 20.7055C35.1654 20.7055 35.6499 20.5195 36.0286 20.1914C36.14 20.093 36.3126 20.1039 36.4184 20.2133C36.5187 20.3227 36.5075 20.4922 36.3962 20.5961C35.9172 21.0063 35.3047 21.2414 34.6643 21.2414ZM40.144 21.2414C40.0326 21.2414 39.9268 21.1703 39.8878 21.0664L38.1392 16.5109C38.0835 16.3742 38.1559 16.2156 38.3007 16.1664C38.4399 16.1117 38.6014 16.1828 38.6515 16.325L40.144 20.2078L41.6197 16.325C41.6754 16.1883 41.8313 16.1172 41.9705 16.1664C42.1098 16.2211 42.1822 16.3742 42.132 16.5109L40.4057 21.0664C40.3612 21.1703 40.2721 21.2414 40.144 21.2414ZM26.4001 34.1148H20.2522C19.7565 34.1148 19.3556 33.7211 19.3556 33.2344V30.6859C19.3556 30.5383 19.4781 30.418 19.6285 30.418C19.7788 30.418 19.9013 30.5383 19.9013 30.6859V33.2344C19.9013 33.4203 20.0573 33.5734 20.2466 33.5734H26.4001C26.5895 33.5734 26.7454 33.4203 26.7454 33.2344V30.6859C26.7454 30.5383 26.8679 30.418 27.0183 30.418C27.1686 30.418 27.2911 30.5383 27.2911 30.6859V33.2344C27.2967 33.7156 26.8958 34.1148 26.4001 34.1148Z" fill="black"/>
<path d="M29.5242 47.732H28.5242V47.7509L28.5249 47.7697L29.5242 47.732ZM27.7756 24.3148H26.7756V24.3337L26.7763 24.3525L27.7756 24.3148ZM19.4224 24.0414H18.4224V25.0414H19.4224V24.0414ZM27.2355 24.0414V25.0414H28.2355V24.0414H27.2355ZM27.2355 16.1938H28.2355V15.1938H27.2355V16.1938ZM19.4224 16.1938V15.1938H18.4224V16.1938H19.4224ZM36.3962 16.8008L35.731 17.5475L35.7339 17.5501L36.3962 16.8008ZM36.4184 17.1836L37.1557 17.8592L37.1638 17.8503L37.1718 17.8412L36.4184 17.1836ZM36.0286 17.2055L35.3676 17.9558L35.376 17.9633L35.3846 17.9705L36.0286 17.2055ZM36.0286 20.1914L36.6835 20.9472L36.6909 20.9407L36.0286 20.1914ZM36.4184 20.2133L37.1557 19.5376L37.1465 19.5277L37.1372 19.518L36.4184 20.2133ZM36.3962 20.5961L37.0466 21.3556L37.0628 21.3418L37.0783 21.3273L36.3962 20.5961ZM39.8878 21.0664L40.8241 20.7151L40.8214 20.7081L39.8878 21.0664ZM38.1392 16.5109L39.0728 16.1526L39.0691 16.1431L39.0653 16.1337L38.1392 16.5109ZM38.3007 16.1664L38.6225 17.1132L38.6446 17.1057L38.6663 17.0972L38.3007 16.1664ZM38.6515 16.325L37.7084 16.6574L37.7131 16.6707L37.7181 16.6838L38.6515 16.325ZM40.144 20.2078L39.2105 20.5666L40.1492 23.0087L41.0787 20.5631L40.144 20.2078ZM41.6197 16.325L40.6936 15.9478L40.6891 15.9587L40.6849 15.9697L41.6197 16.325ZM41.9705 16.1664L42.3362 15.2356L42.3201 15.2293L42.3039 15.2236L41.9705 16.1664ZM42.132 16.5109L43.0672 16.8653L43.0709 16.8551L42.132 16.5109ZM40.4057 21.0664L41.3248 21.4605L41.3332 21.4408L41.3408 21.4208L40.4057 21.0664ZM27.2911 33.2344H26.2911L26.2912 33.2459L27.2911 33.2344ZM29.2514 47C29.6361 47 29.9785 47.3104 29.9785 47.732H27.9785C27.9785 48.449 28.5659 49 29.2514 49V47ZM29.9785 47.732V13.268H27.9785V47.732H29.9785ZM29.9785 13.268C29.9785 13.6896 29.6361 14 29.2514 14V12C28.5659 12 27.9785 12.551 27.9785 13.268H29.9785ZM29.2514 14C28.8666 14 28.5242 13.6896 28.5242 13.268H30.5242C30.5242 12.551 29.9368 12 29.2514 12V14ZM28.5242 13.268V47.732H30.5242V13.268H28.5242ZM28.5249 47.7697C28.5072 47.2978 28.8946 47 29.2514 47V49C29.92 49 30.5525 48.4615 30.5235 47.6943L28.5249 47.7697ZM26.5282 38.682H20.1241V40.682H26.5282V38.682ZM20.1241 38.682C20.2248 38.682 20.3389 38.7682 20.3389 38.9109H18.3389C18.3389 39.9068 19.1546 40.682 20.1241 40.682V38.682ZM20.3389 38.9109V37.1883H18.3389V38.9109H20.3389ZM20.3389 37.1883C20.3389 37.331 20.2248 37.4172 20.1241 37.4172V35.4172C19.1546 35.4172 18.3389 36.1924 18.3389 37.1883H20.3389ZM20.1241 37.4172H26.5282V35.4172H20.1241V37.4172ZM26.5282 37.4172C26.4275 37.4172 26.3134 37.331 26.3134 37.1883H28.3134C28.3134 36.1924 27.4977 35.4172 26.5282 35.4172V37.4172ZM26.3134 37.1883V38.9109H28.3134V37.1883H26.3134ZM26.3134 38.9109C26.3134 38.7682 26.4275 38.682 26.5282 38.682V40.682C27.4977 40.682 28.3134 39.9068 28.3134 38.9109H26.3134ZM20.1241 35.9586C19.4762 35.9586 18.8846 36.4783 18.8846 37.1938H20.8846C20.8846 37.6467 20.5158 37.9586 20.1241 37.9586V35.9586ZM18.8846 37.1938V38.9164H20.8846V37.1938H18.8846ZM18.8846 38.9164C18.8846 39.5965 19.4402 40.1516 20.1241 40.1516V38.1516C20.5407 38.1516 20.8846 38.4879 20.8846 38.9164H18.8846ZM20.1241 40.1516H26.5282V38.1516H20.1241V40.1516ZM26.5282 40.1516C27.1761 40.1516 27.7677 39.6318 27.7677 38.9164H25.7677C25.7677 38.4635 26.1365 38.1516 26.5282 38.1516V40.1516ZM27.7677 38.9164V37.1938H25.7677V38.9164H27.7677ZM27.7677 37.1938C27.7677 36.5137 27.2121 35.9586 26.5282 35.9586V37.9586C26.1116 37.9586 25.7677 37.6223 25.7677 37.1938H27.7677ZM26.5282 35.9586H20.1241V37.9586H26.5282V35.9586ZM26.5282 44.2437H20.1241V46.2437H26.5282V44.2437ZM20.1241 44.2437C20.2248 44.2437 20.3389 44.3299 20.3389 44.4727H18.3389C18.3389 45.4685 19.1546 46.2437 20.1241 46.2437V44.2437ZM20.3389 44.4727V42.75H18.3389V44.4727H20.3389ZM20.3389 42.75C20.3389 42.8927 20.2248 42.9789 20.1241 42.9789V40.9789C19.1546 40.9789 18.3389 41.7541 18.3389 42.75H20.3389ZM20.1241 42.9789H26.5282V40.9789H20.1241V42.9789ZM26.5282 42.9789C26.4275 42.9789 26.3134 42.8927 26.3134 42.75H28.3134C28.3134 41.7541 27.4977 40.9789 26.5282 40.9789V42.9789ZM26.3134 42.75V44.4727H28.3134V42.75H26.3134ZM26.3134 44.4727C26.3134 44.3299 26.4275 44.2437 26.5282 44.2437V46.2437C27.4977 46.2437 28.3134 45.4685 28.3134 44.4727H26.3134ZM20.1241 41.5148C19.4762 41.5148 18.8846 42.0346 18.8846 42.75H20.8846C20.8846 43.2029 20.5158 43.5148 20.1241 43.5148V41.5148ZM18.8846 42.75V44.4727H20.8846V42.75H18.8846ZM18.8846 44.4727C18.8846 45.1527 19.4402 45.7078 20.1241 45.7078V43.7078C20.5407 43.7078 20.8846 44.0441 20.8846 44.4727H18.8846ZM20.1241 45.7078H26.5282V43.7078H20.1241V45.7078ZM26.5282 45.7078C27.1761 45.7078 27.7677 45.1881 27.7677 44.4727H25.7677C25.7677 44.0197 26.1365 43.7078 26.5282 43.7078V45.7078ZM27.7677 44.4727V42.75H25.7677V44.4727H27.7677ZM27.7677 42.75C27.7677 42.0699 27.2121 41.5148 26.5282 41.5148V43.5148C26.1116 43.5148 25.7677 43.1785 25.7677 42.75H27.7677ZM26.5282 41.5148H20.1241V43.5148H26.5282V41.5148ZM27.5083 23.5828H19.144V25.5828H27.5083V23.5828ZM19.144 23.5828C19.5287 23.5828 19.8711 23.8932 19.8711 24.3148H17.8711C17.8711 25.0318 18.4585 25.5828 19.144 25.5828V23.5828ZM19.8711 24.3148V15.9258H17.8711V24.3148H19.8711ZM19.8711 15.9258C19.8711 16.3474 19.5287 16.6578 19.144 16.6578V14.6578C18.4585 14.6578 17.8711 15.2088 17.8711 15.9258H19.8711ZM19.144 16.6578H27.5028V14.6578H19.144V16.6578ZM27.5028 16.6578C27.118 16.6578 26.7756 16.3474 26.7756 15.9258H28.7756C28.7756 15.2088 28.1882 14.6578 27.5028 14.6578V16.6578ZM26.7756 15.9258V24.3148H28.7756V15.9258H26.7756ZM26.7763 24.3525C26.759 23.8939 27.132 23.5828 27.5083 23.5828V25.5828C28.1853 25.5828 28.8034 25.0311 28.7749 24.2772L26.7763 24.3525ZM19.4224 25.0414H27.2355V23.0414H19.4224V25.0414ZM28.2355 24.0414V16.1938H26.2355V24.0414H28.2355ZM27.2355 15.1938H19.4224V17.1938H27.2355V15.1938ZM18.4224 16.1938V24.0414H20.4224V16.1938H18.4224ZM34.6643 20.2414C33.7682 20.2414 33.0692 19.5291 33.0692 18.693H31.0692C31.0692 20.6677 32.698 22.2414 34.6643 22.2414V20.2414ZM33.0692 18.693C33.0692 17.8568 33.7682 17.1445 34.6643 17.1445V15.1445C32.698 15.1445 31.0692 16.7182 31.0692 18.693H33.0692ZM34.6643 17.1445C35.0586 17.1445 35.4388 17.2872 35.731 17.5475L37.0613 16.054C36.3957 15.4612 35.5396 15.1445 34.6643 15.1445V17.1445ZM35.7339 17.5501C35.4273 17.2791 35.409 16.8194 35.665 16.526L37.1718 17.8412C37.6283 17.3181 37.5878 16.5194 37.0584 16.0515L35.7339 17.5501ZM35.6812 16.5079C35.951 16.2136 36.3886 16.2014 36.6726 16.4404L35.3846 17.9705C35.9025 18.4065 36.6854 18.3723 37.1557 17.8592L35.6812 16.5079ZM36.6896 16.4551C36.1265 15.959 35.4063 15.6914 34.6643 15.6914V17.6914C34.9246 17.6914 35.1734 17.7848 35.3676 17.9558L36.6896 16.4551ZM34.6643 15.6914C33.0042 15.6914 31.6205 17.0244 31.6205 18.6984H33.6205C33.6205 18.1631 34.0745 17.6914 34.6643 17.6914V15.6914ZM31.6205 18.6984C31.6205 20.3724 33.0042 21.7055 34.6643 21.7055V19.7055C34.0745 19.7055 33.6205 19.2338 33.6205 18.6984H31.6205ZM34.6643 21.7055C35.413 21.7055 36.1283 21.4282 36.6835 20.9472L35.3738 19.4357C35.1715 19.6109 34.9179 19.7055 34.6643 19.7055V21.7055ZM36.6909 20.9407C36.3753 21.2196 35.9409 21.1579 35.6997 20.9086L37.1372 19.518C36.6844 19.0499 35.9047 18.9663 35.3664 19.4421L36.6909 20.9407ZM35.6812 20.8889C35.3839 20.5645 35.4536 20.1078 35.714 19.8649L37.0783 21.3273C37.5614 20.8766 37.6534 20.0808 37.1557 19.5376L35.6812 20.8889ZM35.7457 19.8366C35.4424 20.0963 35.0588 20.2414 34.6643 20.2414V22.2414C35.5505 22.2414 36.3921 21.9162 37.0466 21.3556L35.7457 19.8366ZM40.144 20.2414C40.4349 20.2414 40.7117 20.4155 40.8241 20.7151L38.9515 21.4177C39.1419 21.9252 39.6302 22.2414 40.144 22.2414V20.2414ZM40.8214 20.7081L39.0728 16.1526L37.2056 16.8693L38.9542 21.4248L40.8214 20.7081ZM39.0653 16.1337C39.2318 16.5425 39.0097 16.9816 38.6225 17.1132L37.9788 15.2196C37.3021 15.4497 36.9352 16.2059 37.2131 16.8882L39.0653 16.1337ZM38.6663 17.0972C38.2917 17.2443 37.8512 17.0625 37.7084 16.6574L39.5947 15.9926C39.3516 15.3031 38.5881 14.9791 37.9351 15.2356L38.6663 17.0972ZM37.7181 16.6838L39.2105 20.5666L41.0774 19.849L39.5849 15.9662L37.7181 16.6838ZM41.0787 20.5631L42.5545 16.6803L40.6849 15.9697L39.2092 19.8525L41.0787 20.5631ZM42.5458 16.7022C42.4025 17.0542 42.0075 17.2401 41.6372 17.1092L42.3039 15.2236C41.6551 14.9943 40.9483 15.3224 40.6936 15.9478L42.5458 16.7022ZM41.6049 17.0972C41.2678 16.9647 41.0456 16.5693 41.1931 16.1667L43.0709 16.8551C43.3188 16.1791 42.9517 15.4774 42.3362 15.2356L41.6049 17.0972ZM41.1969 16.1566L39.4706 20.712L41.3408 21.4208L43.0671 16.8653L41.1969 16.1566ZM39.4866 20.6723C39.5269 20.5784 39.6028 20.4648 39.7319 20.3742C39.866 20.2801 40.0147 20.2414 40.144 20.2414V22.2414C40.717 22.2414 41.1412 21.8888 41.3248 21.4605L39.4866 20.6723ZM26.4001 33.1148H20.2522V35.1148H26.4001V33.1148ZM20.2522 33.1148C20.2916 33.1148 20.3556 33.1518 20.3556 33.2344H18.3556C18.3556 34.2904 19.2214 35.1148 20.2522 35.1148V33.1148ZM20.3556 33.2344V30.6859H18.3556V33.2344H20.3556ZM20.3556 30.6859C20.3556 31.1076 20.0132 31.418 19.6285 31.418V29.418C18.943 29.418 18.3556 29.969 18.3556 30.6859H20.3556ZM19.6285 31.418C19.2437 31.418 18.9013 31.1076 18.9013 30.6859H20.9013C20.9013 29.969 20.3139 29.418 19.6285 29.418V31.418ZM18.9013 30.6859V33.2344H20.9013V30.6859H18.9013ZM18.9013 33.2344C18.9013 33.9896 19.5221 34.5734 20.2466 34.5734V32.5734C20.5924 32.5734 20.9013 32.851 20.9013 33.2344H18.9013ZM20.2466 34.5734H26.4001V32.5734H20.2466V34.5734ZM26.4001 34.5734C27.1246 34.5734 27.7454 33.9896 27.7454 33.2344H25.7454C25.7454 32.851 26.0544 32.5734 26.4001 32.5734V34.5734ZM27.7454 33.2344V30.6859H25.7454V33.2344H27.7454ZM27.7454 30.6859C27.7454 31.1076 27.403 31.418 27.0183 31.418V29.418C26.3328 29.418 25.7454 29.969 25.7454 30.6859H27.7454ZM27.0183 31.418C26.6335 31.418 26.2911 31.1076 26.2911 30.6859H28.2911C28.2911 29.969 27.7037 29.418 27.0183 29.418V31.418ZM26.2911 30.6859V33.2344H28.2911V30.6859H26.2911ZM26.2912 33.2459C26.2907 33.1991 26.311 33.1633 26.3299 33.1446C26.3487 33.1259 26.3748 33.1148 26.4001 33.1148V35.1148C27.4324 35.1148 28.3033 34.2807 28.2911 33.2228L26.2912 33.2459Z" fill="black" mask="url(#path-6-inside-2_756_2555)"/>
<path d="M22.6228 31.6813C22.6005 31.6813 22.5783 31.6813 22.556 31.6759L19.7604 31.0032C19.237 30.8774 18.875 30.4235 18.875 29.904V28.3563C18.875 27.804 19.3261 27.3501 19.883 27.3501H26.7716C27.3285 27.3501 27.7795 27.7985 27.7795 28.3563V29.904C27.7795 30.4235 27.4176 30.8774 26.8941 31.0032L24.093 31.6759C23.9426 31.7087 23.7978 31.6212 23.7589 31.479C23.7254 31.3368 23.8145 31.1892 23.9593 31.1509L26.7604 30.4782C27.0333 30.4126 27.2282 30.172 27.2282 29.904V28.3563C27.2282 28.0993 27.0222 27.8915 26.766 27.8915H19.8774C19.6212 27.8915 19.4152 28.0993 19.4152 28.3563V29.904C19.4152 30.1774 19.6101 30.4126 19.883 30.4782L22.6785 31.1509C22.8233 31.1837 22.918 31.3313 22.879 31.479C22.8567 31.5993 22.7453 31.6813 22.6228 31.6813Z" fill="black"/>
<mask id="path-9-inside-3_756_2555" fill="white">
<path d="M23.7443 32.6329H22.909C22.6027 32.6329 22.3465 32.3868 22.3465 32.0805V31.0688C22.3465 30.768 22.5971 30.5165 22.909 30.5165H23.7443C24.0506 30.5165 24.3067 30.7625 24.3067 31.0688V32.0805C24.3067 32.3868 24.0562 32.6329 23.7443 32.6329ZM22.909 31.0633L22.8978 32.086L23.7443 32.0969C23.7499 32.0969 23.7554 32.0915 23.7554 32.086V31.0743L22.909 31.0633ZM24.5796 27.8915C24.4293 27.8915 24.3067 27.7711 24.3067 27.6235V26.836L22.3298 26.825L22.3465 27.6235C22.3465 27.7711 22.224 27.8915 22.0737 27.8915C21.9233 27.8915 21.8008 27.7711 21.8008 27.6235V26.836C21.8008 26.5297 22.0402 26.2836 22.3298 26.2836H24.329C24.6186 26.2836 24.8581 26.5297 24.8581 26.836V27.618C24.8581 27.7711 24.73 27.8915 24.5796 27.8915ZM42.3107 25.7149H31.9137C31.7634 25.7149 31.6409 25.5946 31.6409 25.4469C31.6409 25.2993 31.7634 25.179 31.9137 25.179H42.3107C42.4611 25.179 42.5836 25.2993 42.5836 25.4469C42.5836 25.5946 42.4611 25.7149 42.3107 25.7149ZM42.3107 30.1336H31.9137C31.7634 30.1336 31.6409 30.0133 31.6409 29.8657C31.6409 29.718 31.7634 29.5977 31.9137 29.5977H42.3107C42.4611 29.5977 42.5836 29.718 42.5836 29.8657C42.5836 30.0133 42.4611 30.1336 42.3107 30.1336ZM42.3107 34.5524H31.9137C31.7634 34.5524 31.6409 34.4321 31.6409 34.2844C31.6409 34.1368 31.7634 34.0165 31.9137 34.0165H42.3107C42.4611 34.0165 42.5836 34.1368 42.5836 34.2844C42.5836 34.4321 42.4611 34.5524 42.3107 34.5524Z"/>
</mask>
<path d="M23.7443 32.6329H22.909C22.6027 32.6329 22.3465 32.3868 22.3465 32.0805V31.0688C22.3465 30.768 22.5971 30.5165 22.909 30.5165H23.7443C24.0506 30.5165 24.3067 30.7625 24.3067 31.0688V32.0805C24.3067 32.3868 24.0562 32.6329 23.7443 32.6329ZM22.909 31.0633L22.8978 32.086L23.7443 32.0969C23.7499 32.0969 23.7554 32.0915 23.7554 32.086V31.0743L22.909 31.0633ZM24.5796 27.8915C24.4293 27.8915 24.3067 27.7711 24.3067 27.6235V26.836L22.3298 26.825L22.3465 27.6235C22.3465 27.7711 22.224 27.8915 22.0737 27.8915C21.9233 27.8915 21.8008 27.7711 21.8008 27.6235V26.836C21.8008 26.5297 22.0402 26.2836 22.3298 26.2836H24.329C24.6186 26.2836 24.8581 26.5297 24.8581 26.836V27.618C24.8581 27.7711 24.73 27.8915 24.5796 27.8915ZM42.3107 25.7149H31.9137C31.7634 25.7149 31.6409 25.5946 31.6409 25.4469C31.6409 25.2993 31.7634 25.179 31.9137 25.179H42.3107C42.4611 25.179 42.5836 25.2993 42.5836 25.4469C42.5836 25.5946 42.4611 25.7149 42.3107 25.7149ZM42.3107 30.1336H31.9137C31.7634 30.1336 31.6409 30.0133 31.6409 29.8657C31.6409 29.718 31.7634 29.5977 31.9137 29.5977H42.3107C42.4611 29.5977 42.5836 29.718 42.5836 29.8657C42.5836 30.0133 42.4611 30.1336 42.3107 30.1336ZM42.3107 34.5524H31.9137C31.7634 34.5524 31.6409 34.4321 31.6409 34.2844C31.6409 34.1368 31.7634 34.0165 31.9137 34.0165H42.3107C42.4611 34.0165 42.5836 34.1368 42.5836 34.2844C42.5836 34.4321 42.4611 34.5524 42.3107 34.5524Z" fill="black"/>
<path d="M22.909 31.0633L22.9219 30.0634L21.9199 30.0505L21.909 31.0524L22.909 31.0633ZM22.8978 32.086L21.8979 32.0751L21.887 33.073L22.8849 33.0859L22.8978 32.086ZM23.7443 32.0969L23.7314 33.0969H23.7443V32.0969ZM23.7554 31.0743H24.7554V30.0871L23.7684 30.0744L23.7554 31.0743ZM24.3067 26.836H25.3067V25.8415L24.3123 25.836L24.3067 26.836ZM22.3298 26.825L22.3354 25.8251L21.3086 25.8194L21.33 26.846L22.3298 26.825ZM22.3465 27.6235H23.3465V27.613L23.3463 27.6026L22.3465 27.6235ZM42.5836 25.4469H43.5836H42.5836ZM23.7443 31.6329H22.909V33.6329H23.7443V31.6329ZM22.909 31.6329C23.1313 31.6329 23.3465 31.8111 23.3465 32.0805H21.3465C21.3465 32.9624 22.0741 33.6329 22.909 33.6329V31.6329ZM23.3465 32.0805V31.0688H21.3465V32.0805H23.3465ZM23.3465 31.0688C23.3465 31.3309 23.1387 31.5165 22.909 31.5165V29.5165C22.0555 29.5165 21.3465 30.2051 21.3465 31.0688H23.3465ZM22.909 31.5165H23.7443V29.5165H22.909V31.5165ZM23.7443 31.5165C23.522 31.5165 23.3067 31.3382 23.3067 31.0688H25.3067C25.3067 30.1869 24.5792 29.5165 23.7443 29.5165V31.5165ZM23.3067 31.0688V32.0805H25.3067V31.0688H23.3067ZM23.3067 32.0805C23.3067 31.8175 23.521 31.6329 23.7443 31.6329V33.6329C24.5913 33.6329 25.3067 32.9561 25.3067 32.0805H23.3067ZM21.909 31.0524L21.8979 32.0751L23.8978 32.0969L23.9089 31.0742L21.909 31.0524ZM22.8849 33.0859L23.7314 33.0968L23.7572 31.097L22.9108 31.0861L22.8849 33.0859ZM23.7443 33.0969C24.0658 33.0969 24.3083 32.9487 24.4525 32.8071C24.5957 32.6666 24.7554 32.4205 24.7554 32.086H22.7554C22.7554 31.757 22.9124 31.5163 23.0514 31.3799C23.1915 31.2424 23.4283 31.0969 23.7443 31.0969V33.0969ZM24.7554 32.086V31.0743H22.7554V32.086H24.7554ZM23.7684 30.0744L22.9219 30.0634L22.8961 32.0632L23.7425 32.0742L23.7684 30.0744ZM24.5796 26.8915C24.9644 26.8915 25.3067 27.2018 25.3067 27.6235H23.3067C23.3067 28.3404 23.8941 28.8915 24.5796 28.8915V26.8915ZM25.3067 27.6235V26.836H23.3067V27.6235H25.3067ZM24.3123 25.836L22.3354 25.8251L22.3243 27.825L24.3012 27.836L24.3123 25.836ZM21.33 26.846L21.3467 27.6444L23.3463 27.6026L23.3296 26.8041L21.33 26.846ZM21.3465 27.6235C21.3465 27.2018 21.6889 26.8915 22.0737 26.8915V28.8915C22.7591 28.8915 23.3465 28.3404 23.3465 27.6235H21.3465ZM22.0737 26.8915C22.4584 26.8915 22.8008 27.2018 22.8008 27.6235H20.8008C20.8008 28.3404 21.3882 28.8915 22.0737 28.8915V26.8915ZM22.8008 27.6235V26.836H20.8008V27.6235H22.8008ZM22.8008 26.836C22.8008 27.0457 22.6282 27.2836 22.3298 27.2836V25.2836C21.4523 25.2836 20.8008 26.0138 20.8008 26.836H22.8008ZM22.3298 27.2836H24.329V25.2836H22.3298V27.2836ZM24.329 27.2836C24.0306 27.2836 23.8581 27.0457 23.8581 26.836H25.8581C25.8581 26.0138 25.2066 25.2836 24.329 25.2836V27.2836ZM23.8581 26.836V27.618H25.8581V26.836H23.8581ZM23.8581 27.618C23.8581 27.189 24.208 26.8915 24.5796 26.8915V28.8915C25.2519 28.8915 25.8581 28.3533 25.8581 27.618H23.8581ZM42.3107 24.7149H31.9137V26.7149H42.3107V24.7149ZM31.9137 24.7149C32.2985 24.7149 32.6409 25.0253 32.6409 25.4469H30.6409C30.6409 26.1639 31.2283 26.7149 31.9137 26.7149V24.7149ZM32.6409 25.4469C32.6409 25.8686 32.2985 26.179 31.9137 26.179V24.179C31.2283 24.179 30.6409 24.73 30.6409 25.4469H32.6409ZM31.9137 26.179H42.3107V24.179H31.9137V26.179ZM42.3107 26.179C41.926 26.179 41.5836 25.8686 41.5836 25.4469H43.5836C43.5836 24.73 42.9962 24.179 42.3107 24.179V26.179ZM41.5836 25.4469C41.5836 25.0253 41.926 24.7149 42.3107 24.7149V26.7149C42.9962 26.7149 43.5836 26.1639 43.5836 25.4469L41.5836 25.4469ZM42.3107 29.1336H31.9137V31.1336H42.3107V29.1336ZM31.9137 29.1336C32.2985 29.1336 32.6409 29.444 32.6409 29.8657H30.6409C30.6409 30.5826 31.2283 31.1336 31.9137 31.1336V29.1336ZM32.6409 29.8657C32.6409 30.2873 32.2985 30.5977 31.9137 30.5977V28.5977C31.2283 28.5977 30.6409 29.1487 30.6409 29.8657H32.6409ZM31.9137 30.5977H42.3107V28.5977H31.9137V30.5977ZM42.3107 30.5977C41.926 30.5977 41.5836 30.2873 41.5836 29.8657H43.5836C43.5836 29.1487 42.9962 28.5977 42.3107 28.5977V30.5977ZM41.5836 29.8657C41.5836 29.444 41.926 29.1336 42.3107 29.1336V31.1336C42.9962 31.1336 43.5836 30.5826 43.5836 29.8657H41.5836ZM42.3107 33.5524H31.9137V35.5524H42.3107V33.5524ZM31.9137 33.5524C32.2985 33.5524 32.6409 33.8628 32.6409 34.2844H30.6409C30.6409 35.0014 31.2283 35.5524 31.9137 35.5524V33.5524ZM32.6409 34.2844C32.6409 34.7061 32.2985 35.0165 31.9137 35.0165V33.0165C31.2283 33.0165 30.6409 33.5675 30.6409 34.2844H32.6409ZM31.9137 35.0165H42.3107V33.0165H31.9137V35.0165ZM42.3107 35.0165C41.926 35.0165 41.5836 34.7061 41.5836 34.2844H43.5836C43.5836 33.5675 42.9962 33.0165 42.3107 33.0165V35.0165ZM41.5836 34.2844C41.5836 33.8628 41.926 33.5524 42.3107 33.5524V35.5524C42.9962 35.5524 43.5836 35.0014 43.5836 34.2844H41.5836Z" fill="black" mask="url(#path-9-inside-3_756_2555)"/>
<path d="M42.3105 38.971H31.9135C31.7631 38.971 31.6406 38.8507 31.6406 38.703C31.6406 38.5554 31.7631 38.4351 31.9135 38.4351H42.3105C42.4608 38.4351 42.5833 38.5554 42.5833 38.703C42.5833 38.8452 42.4608 38.971 42.3105 38.971Z" fill="black"/>
<path d="M42.3105 43.3843H31.9135C31.7631 43.3843 31.6406 43.264 31.6406 43.1164C31.6406 42.9687 31.7631 42.8484 31.9135 42.8484H42.3105C42.4608 42.8484 42.5833 42.9687 42.5833 43.1164C42.5833 43.264 42.4608 43.3843 42.3105 43.3843Z" fill="black"/>
<path d="M23.3275 20.9734C22.2694 20.9734 21.4062 20.1257 21.4062 19.0867C21.4062 18.0476 22.2694 17.2 23.3275 17.2C24.3856 17.2 25.2432 18.0476 25.2432 19.0867C25.2487 20.1257 24.3856 20.9734 23.3275 20.9734ZM23.3275 17.7414C22.5701 17.7414 21.9576 18.3429 21.9576 19.0867C21.9576 19.8304 22.5701 20.432 23.3275 20.432C24.0848 20.432 24.6974 19.8304 24.6974 19.0867C24.6974 18.3429 24.0848 17.7414 23.3275 17.7414Z" fill="black"/>
<path d="M26.7303 24.5827C26.5799 24.5827 26.4574 24.4624 26.4574 24.3147V24.0577C26.4574 23.0077 25.5887 22.1546 24.5195 22.1546H22.136C21.0668 22.1546 20.1981 23.0077 20.1981 24.0577V24.3147C20.1981 24.4624 20.0756 24.5827 19.9252 24.5827C19.7749 24.5827 19.6523 24.4624 19.6523 24.3147V24.0577C19.6523 22.7124 20.7661 21.6187 22.136 21.6187H24.5195C25.8894 21.6187 27.0032 22.7124 27.0032 24.0577V24.3147C27.0032 24.4624 26.8807 24.5827 26.7303 24.5827Z" fill="black"/>
</g>
<rect x="17.5" y="13.5" width="27" height="34" rx="3.5" stroke="black"/>
<defs>
<clipPath id="clip0_756_2555">
<rect x="17" y="13" width="28" height="35" rx="4" fill="white"/>
</clipPath>
</defs>
</svg>
