<svg width="61" height="61" viewBox="0 0 61 61" fill="none" xmlns="http://www.w3.org/2000/svg">
<path fill-rule="evenodd" clip-rule="evenodd" d="M29.5244 0.0175854C45.3594 -0.532161 59.883 11.8708 60.9397 28.336C62.0216 45.1955 48.4032 60.5126 30.8401 60.9998C30.5641 61.0075 30.3341 60.7899 30.3264 60.5139C30.3188 60.2378 30.5363 60.0078 30.8124 60.0002C47.8081 59.5287 60.9875 44.6952 59.9418 28.4001C58.9209 12.4943 44.8736 0.48531 29.5591 1.01698L29.5442 0.588587L29.5591 1.01698C14.0358 1.55573 0.818662 14.8868 1.00188 30.8823C1.21882 43.4127 7.18117 50.7333 13.2099 54.8999C16.2319 56.9885 19.2746 58.2863 21.6249 59.0421C22.7998 59.4199 23.7974 59.661 24.5278 59.7977C24.8936 59.8661 25.1875 59.9075 25.4002 59.9273C25.507 59.9373 25.5875 59.9412 25.643 59.9413C25.6695 59.9413 25.685 59.9404 25.6918 59.9399C25.9484 59.8795 26.2105 60.0297 26.2857 60.2857C26.3636 60.5507 26.2119 60.8286 25.947 60.9064C25.8403 60.9378 25.7233 60.9413 25.6418 60.9413C25.5458 60.9411 25.4329 60.9347 25.3076 60.923C25.056 60.8996 24.7304 60.853 24.3438 60.7806C23.5694 60.6357 22.5309 60.3839 21.3187 59.9941C18.8949 59.2146 15.7595 57.8776 12.6414 55.7226C6.39028 51.4023 0.224925 43.8007 0.00200899 30.8982L0.00196747 30.8953C-0.188453 14.3441 13.4697 0.574781 29.5244 0.0175854Z" fill="white"/>
<path d="M23.6388 40.125H20.875C20.1457 40.125 19.4462 39.8353 18.9305 39.3195C18.4147 38.8038 18.125 38.1043 18.125 37.375V20.875C18.125 20.1457 18.4147 19.4462 18.9305 18.9305C19.4462 18.4147 20.1457 18.125 20.875 18.125H41.5C42.2293 18.125 42.9288 18.4147 43.4445 18.9305C43.9603 19.4462 44.25 20.1457 44.25 20.875V37.375C44.25 38.1043 43.9603 38.8038 43.4445 39.3195C42.9288 39.8353 42.2293 40.125 41.5 40.125H38.6125" stroke="white" stroke-linecap="round"/>
<path d="M18.8125 24.3125H43.5625" stroke="white" stroke-linecap="square"/>
<path d="M21.5625 22.9375C22.3219 22.9375 22.9375 22.3219 22.9375 21.5625C22.9375 20.8031 22.3219 20.1875 21.5625 20.1875C20.8031 20.1875 20.1875 20.8031 20.1875 21.5625C20.1875 22.3219 20.8031 22.9375 21.5625 22.9375Z" fill="white" stroke="white" stroke-width="0.5"/>
<path d="M24.3125 22.9375C25.0719 22.9375 25.6875 22.3219 25.6875 21.5625C25.6875 20.8031 25.0719 20.1875 24.3125 20.1875C23.5531 20.1875 22.9375 20.8031 22.9375 21.5625C22.9375 22.3219 23.5531 22.9375 24.3125 22.9375Z" fill="white" stroke="white" stroke-width="0.5"/>
<path d="M27.0625 22.9375C27.8219 22.9375 28.4375 22.3219 28.4375 21.5625C28.4375 20.8031 27.8219 20.1875 27.0625 20.1875C26.3031 20.1875 25.6875 20.8031 25.6875 21.5625C25.6875 22.3219 26.3031 22.9375 27.0625 22.9375Z" fill="white" stroke="white" stroke-width="0.5"/>
<path d="M29.125 44.9375V38.0625C29.125 37.5155 29.3423 36.9909 29.7291 36.6041C30.1159 36.2173 30.6405 36 31.1875 36C31.7345 36 32.2591 36.2173 32.6459 36.6041C33.0327 36.9909 33.25 37.5155 33.25 38.0625V44.9375" stroke="white"/>
<path d="M35.3964 41.7255C36.0653 40.93 36.4951 39.9612 36.636 38.9314C36.7769 37.9017 36.6231 36.853 36.1925 35.9071C35.7618 34.9611 35.0719 34.1566 34.2028 33.5866C33.3336 33.0166 32.3207 32.7046 31.2815 32.6867C30.2423 32.6688 29.2193 32.9458 28.331 33.4854C27.4427 34.0251 26.7255 34.8054 26.2626 35.736C25.7996 36.6665 25.6098 37.7092 25.7151 38.7433C25.8204 39.7773 26.2166 40.7603 26.8577 41.5784" stroke="white" stroke-linecap="round"/>
<path fill-rule="evenodd" clip-rule="evenodd" d="M31.1875 37.375C31.3698 37.375 31.5447 37.4474 31.6736 37.5764C31.8026 37.7053 31.875 37.8802 31.875 38.0625V38.75H30.5V38.0625C30.5 37.8802 30.5724 37.7053 30.7014 37.5764C30.8303 37.4474 31.0052 37.375 31.1875 37.375Z" fill="white"/>
</svg>
