<svg width="83" height="83" viewBox="0 0 83 83" fill="none" xmlns="http://www.w3.org/2000/svg">
<path d="M41.6427 81.0667C63.7341 81.0667 81.6427 63.158 81.6427 41.0667C81.6427 18.9753 63.7341 1.06665 41.6427 1.06665C19.5513 1.06665 1.6427 18.9753 1.6427 41.0667C1.6427 63.158 19.5513 81.0667 41.6427 81.0667Z" stroke="white" stroke-width="2" stroke-linecap="round" stroke-linejoin="round"/>
<path d="M25.6853 56.837L37.3527 45.1697M52.045 39.9813L48.5525 50.4588C48.4968 50.6268 48.4013 50.7788 48.2743 50.902C48.1473 51.0252 47.9924 51.1159 47.8228 51.1665L26.4132 57.53C26.2203 57.5873 26.0154 57.5906 25.8208 57.5395C25.6261 57.4884 25.4493 57.3849 25.3094 57.2403C25.1695 57.0957 25.0719 56.9155 25.0273 56.7193C24.9828 56.523 24.9928 56.3184 25.0565 56.1275L32.0085 35.2752C32.0583 35.1254 32.1398 34.9882 32.2473 34.8727C32.3549 34.7573 32.486 34.6663 32.6318 34.606L42.508 30.5397C42.7088 30.4567 42.9296 30.4351 43.1427 30.4775C43.3557 30.5199 43.5515 30.6245 43.7052 30.778L51.7792 38.8557C51.9236 39.0001 52.025 39.1819 52.072 39.3807C52.1189 39.5796 52.1096 39.7875 52.045 39.9813Z" stroke="white" stroke-width="1.5" stroke-linecap="round" stroke-linejoin="round"/>
<path d="M52.2613 39.336L57.4459 34.1495C58.1333 33.4619 58.5195 32.5294 58.5195 31.5571C58.5195 30.5849 58.1333 29.6524 57.4459 28.9648L53.5593 25.0745C53.2188 24.7338 52.8145 24.4636 52.3695 24.2793C51.9246 24.0949 51.4477 24 50.966 24C50.4844 24 50.0075 24.0949 49.5625 24.2793C49.1176 24.4636 48.7133 24.7338 48.3728 25.0745L43.1881 30.261M41.2411 41.2793C40.9857 41.024 40.6824 40.8215 40.3487 40.6833C40.015 40.5452 39.6574 40.4742 39.2962 40.4742C38.935 40.4743 38.5774 40.5455 38.2438 40.6838C37.9102 40.8221 37.607 41.0248 37.3517 41.2802C37.0964 41.5357 36.8939 41.8389 36.7557 42.1726C36.6176 42.5063 36.5465 42.864 36.5466 43.2251C36.5467 43.5863 36.6179 43.9439 36.7562 44.2775C36.8945 44.6112 37.0972 44.9143 37.3526 45.1696C37.8685 45.6853 38.5681 45.9749 39.2975 45.9747C40.0269 45.9745 40.7264 45.6846 41.242 45.1687C41.7577 44.6528 42.0473 43.9532 42.0471 43.2238C42.0469 42.4944 41.757 41.7949 41.2411 41.2793Z" stroke="white" stroke-width="1.5" stroke-linecap="round" stroke-linejoin="round"/>
</svg>
