<svg width="82" height="82" viewBox="0 0 82 82" fill="none" xmlns="http://www.w3.org/2000/svg">
<path d="M41 81C63.0914 81 81 63.0914 81 41C81 18.9086 63.0914 1 41 1C18.9086 1 1 18.9086 1 41C1 63.0914 18.9086 81 41 81Z" stroke="black" stroke-width="2" stroke-linecap="round" stroke-linejoin="round"/>
<path d="M17.68 35.852C17.8107 34.1347 18.4733 32.7907 19.668 31.82C20.8627 30.8493 22.412 30.364 24.316 30.364C25.5853 30.364 26.6773 30.5973 27.592 31.064C28.5253 31.512 29.2253 32.128 29.692 32.912C30.1773 33.696 30.42 34.5827 30.42 35.572C30.42 36.7293 30.084 37.728 29.412 38.568C28.7587 39.408 27.9 39.9493 26.836 40.192V40.332C28.0493 40.6307 29.0107 41.2187 29.72 42.096C30.4293 42.9733 30.784 44.1213 30.784 45.54C30.784 46.604 30.5413 47.5653 30.056 48.424C29.5707 49.264 28.8427 49.9267 27.872 50.412C26.9013 50.8973 25.7347 51.14 24.372 51.14C22.3933 51.14 20.7693 50.6267 19.5 49.6C18.2307 48.5547 17.5213 47.08 17.372 45.176H19.836C19.9667 46.296 20.424 47.2107 21.208 47.92C21.992 48.6293 23.0373 48.984 24.344 48.984C25.6507 48.984 26.64 48.648 27.312 47.976C28.0027 47.2853 28.348 46.3987 28.348 45.316C28.348 43.916 27.8813 42.908 26.948 42.292C26.0147 41.676 24.6053 41.368 22.72 41.368H22.076V39.24H22.748C24.4653 39.2213 25.7627 38.9413 26.64 38.4C27.5173 37.84 27.956 36.9813 27.956 35.824C27.956 34.8347 27.6293 34.0413 26.976 33.444C26.3413 32.8467 25.4267 32.548 24.232 32.548C23.0747 32.548 22.1413 32.8467 21.432 33.444C20.7227 34.0413 20.3027 34.844 20.172 35.852H17.68ZM59.1723 31.484L53.5163 51H50.6603L46.1243 35.292L41.4203 51L38.5923 51.028L33.1323 31.484H35.8483L40.1043 48.032L44.8083 31.484H47.6643L52.1443 47.976L56.4283 31.484H59.1723ZM62.7727 51.168C62.2874 51.168 61.8767 51 61.5407 50.664C61.2047 50.328 61.0367 49.9173 61.0367 49.432C61.0367 48.9467 61.2047 48.536 61.5407 48.2C61.8767 47.864 62.2874 47.696 62.7727 47.696C63.2394 47.696 63.6314 47.864 63.9487 48.2C64.2847 48.536 64.4527 48.9467 64.4527 49.432C64.4527 49.9173 64.2847 50.328 63.9487 50.664C63.6314 51 63.2394 51.168 62.7727 51.168Z" fill="black"/>
</svg>
